M48
;GenerationSoftware,Autodesk,EAGLE,9.6.1*%
;CreationDate,2021-09-02T15:06:03Z*%
FMAT,2
ICI,OFF
METRIC,TZ,000.000
T7C0.250
T6C0.350
T5C0.762
T4C1.000
T3C1.524
T2C2.159
T1C2.750
%
G90
M71
T1
X7310Y4770
X65310Y4770
X7310Y53770
X65310Y53770
T2
X5740Y19876
X5740Y28384
X65380Y29654
X65380Y21146
T3
X8890Y19876
X8890Y28384
X62230Y29654
X62230Y21146
T4
X14720Y55040
X60440Y55040
X60440Y52500
X57900Y55040
X57900Y52500
X55360Y55040
X55360Y52500
X52820Y55040
X52820Y52500
X50280Y55040
X50280Y52500
X12180Y52500
X47740Y55040
X47740Y52500
X45200Y55040
X45200Y52500
X42660Y55040
X42660Y52500
X40120Y55040
X40120Y52500
X37580Y55040
X37580Y52500
X35040Y55040
X35040Y52500
X32500Y55040
X32500Y52500
X29960Y55040
X29960Y52500
X27420Y55040
X27420Y52500
X24880Y55040
X24880Y52500
X22340Y55040
X22340Y52500
X19800Y55040
X19800Y52500
X17260Y55040
X17260Y52500
X12180Y55040
X14720Y52500
T5
X62230Y25400
X8890Y24130
T6
X53340Y5080
X24765Y35433
X24130Y43180
X27536Y27940
X25400Y36830
X29337Y10922
X31242Y8890
X12827Y36957
X6350Y36830
X27940Y41910
X31750Y25600
X36830Y25273
X24130Y36830
X59690Y15240
X55245Y9271
X18669Y46609
X44577Y34163
X26670Y43180
X43942Y36957
X46990Y33020
X50800Y34090
X41783Y20193
X45206Y17266
X22987Y43815
X12446Y43335
X34290Y49530
X43053Y49530
X21844Y43942
X10795Y43942
X15226Y18048
X22860Y18923
X11430Y41021
X8649Y39992
X19050Y39370
X19050Y42728
X23241Y47879
X17272Y49530
X57404Y35306
X49657Y36195
X33020Y30226
X34671Y28456
X34544Y5969
X34576Y11144
X49149Y10795
X56642Y12319
X33759Y15509
T7
X57658Y24003
X58674Y24511
X59817Y24511
X62103Y24003
X63246Y24257
X63881Y25273
X63500Y26416
X62484Y26924
X61341Y26797
X54864Y29591
X52832Y29845
X53721Y30988
X56134Y29845
X57658Y29845
X58928Y30734
X57785Y33909
X59817Y34925
X58547Y39116
X55499Y39624
X55372Y37211
X54102Y33020
X51943Y33020
X53340Y35306
X46355Y36576
X54356Y39751
X53340Y39751
X52070Y39751
X49911Y39751
X51054Y39751
X48768Y39751
X47371Y39751
X45339Y39751
X55118Y41402
X53467Y41402
X52197Y41402
X51054Y41402
X49911Y41402
X48768Y41402
X47371Y41402
X46355Y39751
X46355Y41402
X45339Y41402
X43180Y39751
X43180Y41402
X41910Y41402
X41910Y39751
X40640Y41402
X39370Y41402
X38100Y41402
X36830Y41402
X35560Y41402
X34290Y41402
X40640Y39751
X39370Y39751
X38100Y39751
X36830Y39751
X35560Y39751
X34544Y39751
X33782Y38862
X33147Y40767
X32131Y39751
X31242Y38735
X29972Y37846
X29337Y36830
X28575Y36068
X27178Y34671
X33147Y38227
X32512Y37592
X31877Y36957
X31242Y36322
X30607Y35687
X29972Y35052
X29337Y34417
X28702Y33782
X27305Y32639
X26543Y33909
X26670Y32004
X23749Y29845
X23622Y32131
X22860Y31369
X22225Y30734
X21590Y30099
X20955Y29464
X20320Y28829
X23114Y29210
X22479Y28575
X33655Y33528
X34798Y33782
X36068Y33782
X37338Y33782
X40386Y31242
X38735Y31115
X38100Y29845
X37084Y29591
X35433Y29972
X34544Y31369
X32766Y32639
X36957Y37973
X32258Y35814
X40132Y37973
X32131Y34036
X31242Y33274
X30353Y32258
X29591Y31496
X26797Y21082
X26670Y30988
X27305Y29464
X26035Y28067
X23749Y25908
X22987Y25019
X21717Y24892
X20447Y24892
X19177Y24892
X17907Y24892
X16637Y24892
X15367Y24892
X14097Y24892
X12827Y24892
X11557Y24892
X10414Y24892
X9525Y25654
X8382Y25654
X7366Y24765
X7366Y23495
X8255Y22733
X9525Y22733
X10541Y23368
X11684Y23368
X12954Y23368
X14224Y23368
X15494Y23368
X16764Y23368
X18034Y23368
X19304Y23368
X20574Y23368
X22225Y23876
X23114Y22987
X51562Y29972
X50927Y30607
X49657Y30988
X48387Y30988
X47117Y30988
X45847Y30988
X44577Y30988
X43307Y30988
X42037Y30988
X48387Y29083
X47117Y29083
X45847Y29083
X44577Y29083
X43307Y29083
X42037Y29083
X41021Y28575
X39878Y27178
X41529Y13208
X41529Y11938
X41529Y10668
X40894Y9652
X12700Y13843
X18415Y13843
X12700Y3048
X18415Y3048
X24130Y3048
X29845Y3048
X36195Y3048
X42545Y2667
X49022Y2794
X53848Y2032
X59055Y3048
X59690Y7493
X64135Y11938
X47625Y44323
X52705Y44323
X57150Y44323
X60325Y48768
X64135Y46228
X66040Y43053
X20320Y33909
X16510Y33909
X3175Y37084
X4445Y32639
X9525Y31369
X15621Y42672
X9525Y44196
X20193Y45212
X39370Y44323
X39370Y47498
X31115Y47498
X29845Y44958
X24765Y50038
X26035Y41148
X25400Y43053
X20320Y37973
X50038Y25273
X48133Y25908
X47498Y27178
X43688Y25908
X41783Y24003
X34163Y22733
X27813Y22733
X27813Y25273
X24130Y8128
X18415Y8128
X40640Y34798
X11176Y43053
X15113Y29718
X10541Y49911
X5461Y49403
X6731Y49403
X56896Y23241
X56007Y22352
X55118Y24003
X56007Y24765
X56896Y25654
X58039Y26162
X59182Y26162
X60452Y26162
X60833Y24511
X57912Y15240
X56642Y13335
X51816Y9525
X50546Y10160
X53975Y12573
X53721Y13716
X53721Y14732
X54737Y20955
X52959Y20828
X53086Y19812
X54737Y19812
X54737Y18796
X53086Y18796
X51943Y18796
X46609Y17526
X49022Y14732
X47752Y14732
X50546Y17272
X51435Y20955
X50546Y20066
X49657Y19177
X48514Y18542
X46990Y18542
X49403Y21209
X48387Y20447
X47117Y20193
X45593Y20193
X45593Y18542
X42291Y17653
X43688Y16510
X42799Y15621
X41783Y14605
X39624Y18034
X41148Y17145
X43815Y19685
X42799Y18669
X42291Y21082
X41021Y21082
X39751Y21082
X41021Y19558
X39751Y19558
X38481Y21082
X38481Y19558
X36703Y19558
X36703Y21082
X35687Y21082
X34417Y21082
X33147Y21082
X31877Y21082
X30607Y21082
X29337Y21082
X28067Y21082
X26162Y12954
X27940Y11303
X32766Y8128
X39497Y9398
X36957Y9398
X39116Y13716
X34544Y13208
X33020Y11557
X34290Y17653
X36449Y16510
X31242Y15875
X29972Y15875
X28702Y15875
X31242Y17399
X29972Y17399
X28702Y17399
X27432Y17399
X27432Y15875
X26162Y17399
X26162Y15875
X23368Y15875
X23241Y17399
X22225Y16256
X22352Y18161
X21082Y17018
X19812Y18288
X18669Y19812
X23622Y21082
X21082Y19558
X23622Y19558
X35814Y19558
X34544Y19558
X33274Y19558
X32004Y19558
X30734Y19558
X29464Y19558
X28194Y19558
X26797Y19558
X28575Y30734
M30