G04 EAGLE Gerber RS-274X export*
G75*
%MOMM*%
%FSLAX34Y34*%
%LPD*%
%INBottom Copper*%
%IPPOS*%
%AMOC8*
5,1,8,0,0,1.08239X$1,22.5*%
G01*
%ADD10R,1.778000X1.778000*%
%ADD11C,1.778000*%
%ADD12C,6.200000*%
%ADD13C,1.524000*%
%ADD14C,2.540000*%
%ADD15C,3.175000*%
%ADD16C,0.656400*%
%ADD17C,0.756400*%
%ADD18C,0.304800*%
%ADD19C,0.152400*%
%ADD20C,0.254000*%

G36*
X687398Y10164D02*
X687398Y10164D01*
X687417Y10162D01*
X687519Y10184D01*
X687621Y10200D01*
X687638Y10210D01*
X687658Y10214D01*
X687747Y10267D01*
X687838Y10316D01*
X687852Y10330D01*
X687869Y10340D01*
X687936Y10419D01*
X688008Y10494D01*
X688016Y10512D01*
X688029Y10527D01*
X688068Y10623D01*
X688111Y10717D01*
X688113Y10737D01*
X688121Y10755D01*
X688139Y10922D01*
X688139Y212888D01*
X688128Y212958D01*
X688126Y213030D01*
X688108Y213079D01*
X688100Y213130D01*
X688066Y213194D01*
X688041Y213261D01*
X688009Y213302D01*
X687984Y213348D01*
X687932Y213397D01*
X687888Y213453D01*
X687844Y213481D01*
X687806Y213517D01*
X687741Y213547D01*
X687681Y213586D01*
X687630Y213599D01*
X687583Y213621D01*
X687512Y213629D01*
X687442Y213646D01*
X687390Y213642D01*
X687339Y213648D01*
X687268Y213633D01*
X687197Y213627D01*
X687149Y213607D01*
X687098Y213596D01*
X687037Y213559D01*
X686971Y213531D01*
X686915Y213486D01*
X686887Y213469D01*
X686872Y213452D01*
X686840Y213426D01*
X631604Y158190D01*
X629595Y156181D01*
X602461Y156181D01*
X602391Y156170D01*
X602319Y156168D01*
X602270Y156150D01*
X602219Y156142D01*
X602155Y156108D01*
X602088Y156083D01*
X602047Y156051D01*
X602001Y156026D01*
X601952Y155974D01*
X601896Y155930D01*
X601868Y155886D01*
X601832Y155848D01*
X601802Y155783D01*
X601763Y155723D01*
X601750Y155672D01*
X601728Y155625D01*
X601720Y155554D01*
X601703Y155484D01*
X601707Y155432D01*
X601701Y155381D01*
X601716Y155310D01*
X601722Y155239D01*
X601742Y155191D01*
X601753Y155140D01*
X601790Y155079D01*
X601818Y155013D01*
X601863Y154957D01*
X601880Y154929D01*
X601897Y154914D01*
X601923Y154882D01*
X602207Y154598D01*
X602207Y150202D01*
X599410Y147405D01*
X599357Y147331D01*
X599297Y147261D01*
X599285Y147231D01*
X599266Y147205D01*
X599239Y147118D01*
X599205Y147033D01*
X599201Y146992D01*
X599194Y146970D01*
X599195Y146938D01*
X599187Y146867D01*
X599187Y136213D01*
X597624Y134650D01*
X557980Y95006D01*
X557927Y94932D01*
X557867Y94862D01*
X557855Y94832D01*
X557836Y94806D01*
X557809Y94719D01*
X557775Y94634D01*
X557771Y94593D01*
X557764Y94571D01*
X557765Y94539D01*
X557757Y94468D01*
X557757Y90512D01*
X554960Y87715D01*
X554907Y87641D01*
X554847Y87571D01*
X554835Y87541D01*
X554816Y87515D01*
X554789Y87428D01*
X554755Y87343D01*
X554751Y87302D01*
X554744Y87280D01*
X554745Y87248D01*
X554737Y87177D01*
X554737Y60321D01*
X536861Y42445D01*
X331010Y42445D01*
X241553Y131902D01*
X241553Y348296D01*
X241539Y348386D01*
X241531Y348477D01*
X241519Y348507D01*
X241514Y348539D01*
X241471Y348619D01*
X241435Y348703D01*
X241409Y348736D01*
X241398Y348756D01*
X241375Y348778D01*
X241330Y348834D01*
X240858Y349307D01*
X239295Y350869D01*
X239295Y362485D01*
X239281Y362575D01*
X239273Y362666D01*
X239261Y362695D01*
X239256Y362727D01*
X239213Y362808D01*
X239177Y362892D01*
X239151Y362924D01*
X239140Y362945D01*
X239117Y362967D01*
X239072Y363023D01*
X235993Y366102D01*
X235993Y370498D01*
X239102Y373607D01*
X243498Y373607D01*
X246607Y370498D01*
X246607Y366102D01*
X244092Y363587D01*
X244039Y363513D01*
X243979Y363443D01*
X243967Y363413D01*
X243948Y363387D01*
X243921Y363300D01*
X243887Y363215D01*
X243883Y363174D01*
X243876Y363152D01*
X243877Y363120D01*
X243869Y363049D01*
X243869Y359891D01*
X243880Y359821D01*
X243882Y359749D01*
X243900Y359700D01*
X243908Y359649D01*
X243942Y359585D01*
X243967Y359518D01*
X243999Y359477D01*
X244024Y359431D01*
X244076Y359382D01*
X244120Y359326D01*
X244164Y359298D01*
X244202Y359262D01*
X244267Y359232D01*
X244327Y359193D01*
X244378Y359180D01*
X244425Y359158D01*
X244496Y359150D01*
X244566Y359133D01*
X244618Y359137D01*
X244669Y359131D01*
X244740Y359146D01*
X244811Y359152D01*
X244859Y359172D01*
X244910Y359183D01*
X244971Y359220D01*
X245037Y359248D01*
X245093Y359293D01*
X245121Y359310D01*
X245136Y359327D01*
X245168Y359353D01*
X245452Y359637D01*
X249848Y359637D01*
X250414Y359071D01*
X250472Y359029D01*
X250524Y358980D01*
X250571Y358958D01*
X250613Y358928D01*
X250682Y358906D01*
X250747Y358876D01*
X250799Y358871D01*
X250849Y358855D01*
X250920Y358857D01*
X250991Y358849D01*
X251042Y358860D01*
X251094Y358862D01*
X251162Y358886D01*
X251232Y358901D01*
X251277Y358928D01*
X251325Y358946D01*
X251381Y358991D01*
X251443Y359028D01*
X251477Y359067D01*
X251517Y359100D01*
X251556Y359160D01*
X251603Y359215D01*
X251622Y359263D01*
X251650Y359307D01*
X251668Y359376D01*
X251695Y359443D01*
X251703Y359514D01*
X251711Y359545D01*
X251709Y359568D01*
X251713Y359609D01*
X251713Y362767D01*
X251699Y362857D01*
X251691Y362948D01*
X251679Y362977D01*
X251674Y363009D01*
X251631Y363090D01*
X251595Y363174D01*
X251569Y363206D01*
X251558Y363227D01*
X251535Y363249D01*
X251490Y363305D01*
X248693Y366102D01*
X248693Y370498D01*
X251802Y373607D01*
X252203Y373607D01*
X252274Y373618D01*
X252345Y373620D01*
X252394Y373638D01*
X252446Y373646D01*
X252509Y373680D01*
X252576Y373705D01*
X252617Y373737D01*
X252663Y373762D01*
X252713Y373814D01*
X252769Y373858D01*
X252797Y373902D01*
X252833Y373940D01*
X252863Y374005D01*
X252902Y374065D01*
X252914Y374116D01*
X252936Y374163D01*
X252944Y374234D01*
X252962Y374304D01*
X252958Y374356D01*
X252963Y374407D01*
X252948Y374478D01*
X252942Y374549D01*
X252922Y374597D01*
X252911Y374648D01*
X252874Y374709D01*
X252846Y374775D01*
X252801Y374831D01*
X252785Y374859D01*
X252767Y374874D01*
X252741Y374906D01*
X239013Y388634D01*
X239013Y426267D01*
X238999Y426357D01*
X238991Y426448D01*
X238979Y426477D01*
X238974Y426509D01*
X238931Y426590D01*
X238895Y426674D01*
X238869Y426706D01*
X238858Y426727D01*
X238835Y426749D01*
X238790Y426805D01*
X235993Y429602D01*
X235993Y433998D01*
X239102Y437107D01*
X243498Y437107D01*
X246607Y433998D01*
X246607Y429602D01*
X243810Y426805D01*
X243757Y426731D01*
X243697Y426661D01*
X243685Y426631D01*
X243666Y426605D01*
X243639Y426518D01*
X243605Y426433D01*
X243601Y426392D01*
X243594Y426370D01*
X243595Y426338D01*
X243587Y426267D01*
X243587Y390844D01*
X243601Y390754D01*
X243609Y390663D01*
X243621Y390633D01*
X243626Y390601D01*
X243669Y390521D01*
X243705Y390437D01*
X243731Y390405D01*
X243742Y390384D01*
X243765Y390362D01*
X243810Y390306D01*
X260792Y373323D01*
X262355Y371761D01*
X262355Y364839D01*
X260842Y363326D01*
X260789Y363252D01*
X260729Y363183D01*
X260717Y363153D01*
X260698Y363127D01*
X260671Y363040D01*
X260637Y362955D01*
X260633Y362914D01*
X260626Y362891D01*
X260627Y362859D01*
X260619Y362788D01*
X260619Y297695D01*
X260633Y297604D01*
X260641Y297514D01*
X260653Y297484D01*
X260658Y297452D01*
X260701Y297371D01*
X260737Y297287D01*
X260763Y297255D01*
X260774Y297234D01*
X260797Y297212D01*
X260842Y297156D01*
X273068Y284930D01*
X273142Y284877D01*
X273212Y284817D01*
X273242Y284805D01*
X273268Y284786D01*
X273355Y284759D01*
X273440Y284725D01*
X273481Y284721D01*
X273503Y284714D01*
X273535Y284715D01*
X273607Y284707D01*
X277562Y284707D01*
X280671Y281598D01*
X280671Y277202D01*
X277562Y274093D01*
X273166Y274093D01*
X270057Y277202D01*
X270057Y281157D01*
X270043Y281248D01*
X270035Y281338D01*
X270023Y281368D01*
X270018Y281400D01*
X269997Y281438D01*
X269996Y281446D01*
X269976Y281478D01*
X269975Y281481D01*
X269939Y281565D01*
X269913Y281597D01*
X269902Y281618D01*
X269880Y281639D01*
X269870Y281657D01*
X269857Y281667D01*
X269834Y281696D01*
X257608Y293922D01*
X257587Y293943D01*
X257528Y293986D01*
X257476Y294035D01*
X257429Y294057D01*
X257387Y294087D01*
X257318Y294108D01*
X257253Y294139D01*
X257202Y294144D01*
X257152Y294160D01*
X257080Y294158D01*
X257009Y294166D01*
X256958Y294155D01*
X256906Y294153D01*
X256839Y294129D01*
X256768Y294114D01*
X256724Y294087D01*
X256675Y294069D01*
X256619Y294024D01*
X256557Y293987D01*
X256523Y293948D01*
X256483Y293916D01*
X256444Y293855D01*
X256397Y293800D01*
X256378Y293752D01*
X256350Y293709D01*
X256332Y293639D01*
X256305Y293572D01*
X256297Y293502D01*
X256289Y293470D01*
X256291Y293447D01*
X256287Y293406D01*
X256287Y148583D01*
X256301Y148492D01*
X256309Y148402D01*
X256321Y148372D01*
X256326Y148340D01*
X256369Y148259D01*
X256405Y148175D01*
X256431Y148143D01*
X256442Y148122D01*
X256465Y148100D01*
X256510Y148044D01*
X290061Y114493D01*
X290077Y114481D01*
X290090Y114465D01*
X290177Y114409D01*
X290261Y114349D01*
X290280Y114343D01*
X290297Y114332D01*
X290397Y114307D01*
X290496Y114277D01*
X290516Y114277D01*
X290535Y114272D01*
X290638Y114280D01*
X290742Y114283D01*
X290761Y114290D01*
X290781Y114292D01*
X290876Y114332D01*
X290973Y114368D01*
X290989Y114380D01*
X291007Y114388D01*
X291138Y114493D01*
X291172Y114527D01*
X295568Y114527D01*
X298677Y111418D01*
X298677Y107022D01*
X298643Y106988D01*
X298631Y106972D01*
X298615Y106959D01*
X298559Y106872D01*
X298499Y106788D01*
X298493Y106769D01*
X298482Y106752D01*
X298457Y106652D01*
X298427Y106553D01*
X298427Y106533D01*
X298422Y106514D01*
X298430Y106411D01*
X298433Y106307D01*
X298440Y106288D01*
X298442Y106269D01*
X298482Y106174D01*
X298518Y106076D01*
X298530Y106060D01*
X298538Y106042D01*
X298643Y105911D01*
X310124Y94430D01*
X310198Y94377D01*
X310268Y94317D01*
X310298Y94305D01*
X310324Y94286D01*
X310411Y94259D01*
X310496Y94225D01*
X310537Y94221D01*
X310559Y94214D01*
X310591Y94215D01*
X310663Y94207D01*
X314618Y94207D01*
X317727Y91098D01*
X317727Y86702D01*
X314618Y83593D01*
X310222Y83593D01*
X307113Y86702D01*
X307113Y90657D01*
X307099Y90748D01*
X307091Y90838D01*
X307079Y90868D01*
X307074Y90900D01*
X307031Y90981D01*
X306995Y91065D01*
X306969Y91097D01*
X306958Y91118D01*
X306935Y91140D01*
X306890Y91196D01*
X294396Y103690D01*
X294322Y103743D01*
X294252Y103803D01*
X294222Y103815D01*
X294196Y103834D01*
X294109Y103861D01*
X294024Y103895D01*
X293983Y103899D01*
X293961Y103906D01*
X293929Y103905D01*
X293857Y103913D01*
X291172Y103913D01*
X288063Y107022D01*
X288063Y109707D01*
X288049Y109798D01*
X288041Y109888D01*
X288029Y109918D01*
X288024Y109950D01*
X287981Y110031D01*
X287945Y110115D01*
X287919Y110147D01*
X287908Y110168D01*
X287885Y110190D01*
X287840Y110246D01*
X251713Y146373D01*
X251713Y349051D01*
X251702Y349121D01*
X251700Y349193D01*
X251682Y349242D01*
X251674Y349293D01*
X251640Y349357D01*
X251615Y349424D01*
X251583Y349465D01*
X251558Y349511D01*
X251507Y349560D01*
X251462Y349616D01*
X251418Y349644D01*
X251380Y349680D01*
X251315Y349710D01*
X251255Y349749D01*
X251204Y349762D01*
X251157Y349784D01*
X251086Y349792D01*
X251016Y349809D01*
X250964Y349805D01*
X250913Y349811D01*
X250842Y349796D01*
X250771Y349790D01*
X250723Y349770D01*
X250672Y349759D01*
X250611Y349722D01*
X250545Y349694D01*
X250489Y349649D01*
X250461Y349632D01*
X250446Y349615D01*
X250414Y349589D01*
X250160Y349335D01*
X250107Y349261D01*
X250047Y349191D01*
X250035Y349161D01*
X250016Y349135D01*
X249989Y349048D01*
X249955Y348963D01*
X249951Y348922D01*
X249944Y348900D01*
X249945Y348868D01*
X249937Y348797D01*
X249937Y134613D01*
X249951Y134522D01*
X249959Y134432D01*
X249971Y134402D01*
X249976Y134370D01*
X250019Y134289D01*
X250055Y134205D01*
X250081Y134173D01*
X250092Y134152D01*
X250115Y134130D01*
X250160Y134074D01*
X330924Y53310D01*
X330998Y53257D01*
X331068Y53197D01*
X331098Y53185D01*
X331124Y53166D01*
X331211Y53139D01*
X331296Y53105D01*
X331337Y53101D01*
X331359Y53094D01*
X331391Y53095D01*
X331463Y53087D01*
X342701Y53087D01*
X342771Y53098D01*
X342843Y53100D01*
X342892Y53118D01*
X342943Y53126D01*
X343007Y53160D01*
X343074Y53185D01*
X343115Y53217D01*
X343161Y53242D01*
X343210Y53294D01*
X343266Y53338D01*
X343294Y53382D01*
X343330Y53420D01*
X343360Y53485D01*
X343399Y53545D01*
X343412Y53596D01*
X343434Y53643D01*
X343442Y53714D01*
X343459Y53784D01*
X343455Y53836D01*
X343461Y53887D01*
X343446Y53958D01*
X343440Y54029D01*
X343420Y54077D01*
X343409Y54128D01*
X343372Y54189D01*
X343344Y54255D01*
X343299Y54311D01*
X343282Y54339D01*
X343265Y54354D01*
X343239Y54386D01*
X340133Y57492D01*
X340133Y61888D01*
X343242Y64997D01*
X347638Y64997D01*
X349673Y62962D01*
X349747Y62909D01*
X349817Y62849D01*
X349847Y62837D01*
X349873Y62818D01*
X349960Y62791D01*
X350045Y62757D01*
X350086Y62753D01*
X350108Y62746D01*
X350140Y62747D01*
X350211Y62739D01*
X350212Y62739D01*
X350283Y62750D01*
X350354Y62752D01*
X350403Y62770D01*
X350455Y62778D01*
X350518Y62812D01*
X350585Y62837D01*
X350626Y62869D01*
X350672Y62894D01*
X350721Y62945D01*
X350777Y62990D01*
X350806Y63034D01*
X350841Y63072D01*
X350872Y63137D01*
X350910Y63197D01*
X350923Y63248D01*
X350945Y63295D01*
X350953Y63366D01*
X350970Y63436D01*
X350966Y63488D01*
X350972Y63539D01*
X350957Y63610D01*
X350951Y63681D01*
X350931Y63729D01*
X350920Y63780D01*
X350883Y63841D01*
X350855Y63907D01*
X350810Y63963D01*
X350794Y63991D01*
X350776Y64006D01*
X350750Y64038D01*
X339851Y74937D01*
X339851Y112722D01*
X339837Y112812D01*
X339829Y112903D01*
X339817Y112933D01*
X339812Y112965D01*
X339769Y113045D01*
X339733Y113129D01*
X339707Y113161D01*
X339696Y113182D01*
X339673Y113204D01*
X339628Y113260D01*
X334541Y118347D01*
X334541Y150319D01*
X334527Y150409D01*
X334519Y150500D01*
X334507Y150529D01*
X334502Y150561D01*
X334459Y150642D01*
X334423Y150726D01*
X334397Y150758D01*
X334386Y150779D01*
X334363Y150801D01*
X334318Y150857D01*
X332283Y152892D01*
X332283Y157288D01*
X335392Y160397D01*
X338270Y160397D01*
X338360Y160411D01*
X338451Y160419D01*
X338481Y160431D01*
X338513Y160436D01*
X338593Y160479D01*
X338677Y160515D01*
X338709Y160541D01*
X338730Y160552D01*
X338752Y160575D01*
X338808Y160620D01*
X371858Y193670D01*
X371911Y193744D01*
X371971Y193813D01*
X371983Y193843D01*
X372002Y193870D01*
X372029Y193957D01*
X372063Y194041D01*
X372067Y194082D01*
X372074Y194105D01*
X372073Y194137D01*
X372081Y194208D01*
X372081Y247169D01*
X372070Y247239D01*
X372068Y247311D01*
X372050Y247360D01*
X372042Y247411D01*
X372008Y247475D01*
X371983Y247542D01*
X371951Y247583D01*
X371926Y247629D01*
X371874Y247678D01*
X371830Y247734D01*
X371786Y247762D01*
X371748Y247798D01*
X371683Y247828D01*
X371623Y247867D01*
X371572Y247880D01*
X371525Y247902D01*
X371454Y247910D01*
X371384Y247927D01*
X371332Y247923D01*
X371281Y247929D01*
X371210Y247914D01*
X371139Y247908D01*
X371091Y247888D01*
X371040Y247877D01*
X370979Y247840D01*
X370913Y247812D01*
X370857Y247767D01*
X370829Y247750D01*
X370814Y247733D01*
X370782Y247707D01*
X370498Y247423D01*
X366102Y247423D01*
X363305Y250220D01*
X363231Y250273D01*
X363161Y250333D01*
X363131Y250345D01*
X363105Y250364D01*
X363018Y250391D01*
X362933Y250425D01*
X362892Y250429D01*
X362870Y250436D01*
X362838Y250435D01*
X362767Y250443D01*
X317823Y250443D01*
X317792Y250474D01*
X317718Y250527D01*
X317648Y250587D01*
X317618Y250599D01*
X317592Y250618D01*
X317505Y250645D01*
X317420Y250679D01*
X317379Y250683D01*
X317357Y250690D01*
X317325Y250689D01*
X317253Y250697D01*
X315302Y250697D01*
X312193Y253806D01*
X312193Y255757D01*
X312179Y255848D01*
X312171Y255938D01*
X312159Y255968D01*
X312154Y256000D01*
X312111Y256081D01*
X312075Y256165D01*
X312049Y256197D01*
X312038Y256218D01*
X312015Y256240D01*
X311970Y256296D01*
X277113Y291153D01*
X277113Y413567D01*
X277099Y413657D01*
X277091Y413748D01*
X277079Y413777D01*
X277074Y413809D01*
X277031Y413890D01*
X276995Y413974D01*
X276969Y414006D01*
X276958Y414027D01*
X276935Y414049D01*
X276890Y414105D01*
X274093Y416902D01*
X274093Y421298D01*
X277202Y424407D01*
X281598Y424407D01*
X284707Y421298D01*
X284707Y416902D01*
X281910Y414105D01*
X281857Y414031D01*
X281797Y413961D01*
X281785Y413931D01*
X281766Y413905D01*
X281739Y413818D01*
X281705Y413733D01*
X281701Y413692D01*
X281694Y413670D01*
X281695Y413638D01*
X281687Y413567D01*
X281687Y293363D01*
X281701Y293272D01*
X281709Y293182D01*
X281721Y293152D01*
X281726Y293120D01*
X281769Y293039D01*
X281805Y292955D01*
X281831Y292923D01*
X281842Y292902D01*
X281865Y292880D01*
X281876Y292866D01*
X281883Y292855D01*
X281890Y292849D01*
X281910Y292824D01*
X313824Y260910D01*
X313840Y260898D01*
X313853Y260882D01*
X313940Y260826D01*
X314024Y260766D01*
X314043Y260760D01*
X314060Y260749D01*
X314160Y260724D01*
X314259Y260694D01*
X314279Y260694D01*
X314298Y260689D01*
X314401Y260697D01*
X314505Y260700D01*
X314524Y260707D01*
X314544Y260709D01*
X314639Y260749D01*
X314736Y260785D01*
X314752Y260797D01*
X314770Y260805D01*
X314901Y260910D01*
X315302Y261311D01*
X319698Y261311D01*
X322807Y258202D01*
X322807Y255778D01*
X322810Y255758D01*
X322808Y255739D01*
X322830Y255637D01*
X322846Y255535D01*
X322856Y255518D01*
X322860Y255498D01*
X322913Y255409D01*
X322962Y255318D01*
X322976Y255304D01*
X322986Y255287D01*
X323065Y255220D01*
X323140Y255148D01*
X323158Y255140D01*
X323173Y255127D01*
X323269Y255088D01*
X323363Y255045D01*
X323383Y255043D01*
X323401Y255035D01*
X323568Y255017D01*
X362767Y255017D01*
X362857Y255031D01*
X362948Y255039D01*
X362977Y255051D01*
X363009Y255056D01*
X363090Y255099D01*
X363174Y255135D01*
X363206Y255161D01*
X363227Y255172D01*
X363249Y255195D01*
X363305Y255240D01*
X366102Y258037D01*
X367082Y258037D01*
X367153Y258048D01*
X367224Y258050D01*
X367273Y258068D01*
X367325Y258076D01*
X367388Y258110D01*
X367455Y258135D01*
X367496Y258167D01*
X367542Y258192D01*
X367591Y258244D01*
X367647Y258288D01*
X367676Y258332D01*
X367711Y258370D01*
X367742Y258435D01*
X367780Y258495D01*
X367793Y258546D01*
X367815Y258593D01*
X367823Y258664D01*
X367840Y258734D01*
X367836Y258786D01*
X367842Y258837D01*
X367827Y258908D01*
X367821Y258979D01*
X367801Y259027D01*
X367790Y259078D01*
X367753Y259139D01*
X367725Y259205D01*
X367680Y259261D01*
X367664Y259289D01*
X367646Y259304D01*
X367620Y259336D01*
X347928Y279028D01*
X347854Y279081D01*
X347785Y279141D01*
X347755Y279153D01*
X347728Y279172D01*
X347641Y279199D01*
X347557Y279233D01*
X347516Y279237D01*
X347493Y279244D01*
X347461Y279243D01*
X347390Y279251D01*
X344512Y279251D01*
X341403Y282360D01*
X341403Y285238D01*
X341389Y285328D01*
X341381Y285419D01*
X341369Y285449D01*
X341364Y285481D01*
X341321Y285561D01*
X341285Y285645D01*
X341259Y285677D01*
X341248Y285698D01*
X341225Y285720D01*
X341180Y285776D01*
X330226Y296730D01*
X330152Y296783D01*
X330083Y296843D01*
X330053Y296855D01*
X330026Y296874D01*
X329939Y296901D01*
X329855Y296935D01*
X329814Y296939D01*
X329791Y296946D01*
X329759Y296945D01*
X329688Y296953D01*
X328002Y296953D01*
X324893Y300062D01*
X324893Y304458D01*
X328002Y307567D01*
X332398Y307567D01*
X335507Y304458D01*
X335507Y300388D01*
X335521Y300298D01*
X335529Y300207D01*
X335541Y300177D01*
X335546Y300145D01*
X335589Y300065D01*
X335625Y299981D01*
X335651Y299949D01*
X335662Y299928D01*
X335685Y299906D01*
X335730Y299850D01*
X345492Y290088D01*
X345566Y290035D01*
X345635Y289975D01*
X345665Y289963D01*
X345692Y289944D01*
X345779Y289917D01*
X345863Y289883D01*
X345904Y289879D01*
X345927Y289872D01*
X345959Y289873D01*
X346030Y289865D01*
X348908Y289865D01*
X352017Y286756D01*
X352017Y283878D01*
X352031Y283788D01*
X352039Y283697D01*
X352051Y283667D01*
X352056Y283635D01*
X352099Y283555D01*
X352135Y283471D01*
X352161Y283439D01*
X352172Y283418D01*
X352195Y283396D01*
X352240Y283340D01*
X378179Y257401D01*
X378179Y191367D01*
X343120Y156308D01*
X343067Y156234D01*
X343007Y156165D01*
X342995Y156135D01*
X342976Y156108D01*
X342949Y156021D01*
X342915Y155937D01*
X342911Y155896D01*
X342904Y155873D01*
X342905Y155841D01*
X342897Y155770D01*
X342897Y152892D01*
X340862Y150857D01*
X340809Y150783D01*
X340749Y150713D01*
X340737Y150683D01*
X340718Y150657D01*
X340691Y150570D01*
X340657Y150485D01*
X340653Y150444D01*
X340646Y150422D01*
X340647Y150390D01*
X340639Y150319D01*
X340639Y121188D01*
X340653Y121098D01*
X340661Y121007D01*
X340673Y120977D01*
X340678Y120945D01*
X340721Y120865D01*
X340757Y120781D01*
X340783Y120749D01*
X340794Y120728D01*
X340817Y120706D01*
X340862Y120650D01*
X344546Y116965D01*
X344620Y116912D01*
X344690Y116853D01*
X344720Y116841D01*
X344746Y116822D01*
X344833Y116795D01*
X344918Y116761D01*
X344959Y116756D01*
X344981Y116749D01*
X345013Y116750D01*
X345085Y116742D01*
X347963Y116742D01*
X351071Y113634D01*
X351071Y109237D01*
X347963Y106129D01*
X346710Y106129D01*
X346690Y106126D01*
X346671Y106128D01*
X346569Y106106D01*
X346467Y106089D01*
X346450Y106080D01*
X346430Y106076D01*
X346341Y106022D01*
X346250Y105974D01*
X346236Y105960D01*
X346219Y105949D01*
X346152Y105871D01*
X346080Y105796D01*
X346072Y105778D01*
X346059Y105762D01*
X346020Y105666D01*
X345977Y105573D01*
X345975Y105553D01*
X345967Y105534D01*
X345949Y105368D01*
X345949Y77778D01*
X345963Y77688D01*
X345971Y77597D01*
X345983Y77567D01*
X345988Y77535D01*
X346031Y77455D01*
X346067Y77371D01*
X346093Y77339D01*
X346104Y77318D01*
X346127Y77296D01*
X346172Y77240D01*
X356640Y66772D01*
X356714Y66719D01*
X356783Y66659D01*
X356813Y66647D01*
X356840Y66628D01*
X356927Y66601D01*
X357011Y66567D01*
X357052Y66563D01*
X357075Y66556D01*
X357107Y66557D01*
X357178Y66549D01*
X468322Y66549D01*
X468412Y66563D01*
X468503Y66571D01*
X468533Y66583D01*
X468565Y66588D01*
X468645Y66631D01*
X468729Y66667D01*
X468761Y66693D01*
X468782Y66704D01*
X468804Y66727D01*
X468860Y66772D01*
X488218Y86130D01*
X488271Y86204D01*
X488331Y86273D01*
X488343Y86303D01*
X488362Y86330D01*
X488389Y86417D01*
X488423Y86501D01*
X488427Y86542D01*
X488434Y86565D01*
X488433Y86597D01*
X488441Y86668D01*
X488441Y103179D01*
X488427Y103269D01*
X488419Y103360D01*
X488407Y103389D01*
X488402Y103421D01*
X488359Y103502D01*
X488323Y103586D01*
X488297Y103618D01*
X488286Y103639D01*
X488263Y103661D01*
X488218Y103717D01*
X486183Y105752D01*
X486183Y110148D01*
X489292Y113257D01*
X489630Y113257D01*
X489720Y113271D01*
X489811Y113279D01*
X489841Y113291D01*
X489873Y113296D01*
X489953Y113339D01*
X490037Y113375D01*
X490069Y113401D01*
X490090Y113412D01*
X490112Y113435D01*
X490168Y113480D01*
X494037Y117349D01*
X555952Y117349D01*
X556042Y117363D01*
X556133Y117371D01*
X556163Y117383D01*
X556195Y117388D01*
X556275Y117431D01*
X556359Y117467D01*
X556391Y117493D01*
X556412Y117504D01*
X556434Y117527D01*
X556490Y117572D01*
X560890Y121972D01*
X560943Y122046D01*
X561003Y122115D01*
X561015Y122145D01*
X561034Y122172D01*
X561061Y122259D01*
X561095Y122343D01*
X561099Y122384D01*
X561106Y122407D01*
X561105Y122439D01*
X561113Y122510D01*
X561113Y125388D01*
X564222Y128497D01*
X567100Y128497D01*
X567190Y128511D01*
X567281Y128519D01*
X567311Y128531D01*
X567343Y128536D01*
X567423Y128579D01*
X567507Y128615D01*
X567539Y128641D01*
X567560Y128652D01*
X567582Y128675D01*
X567638Y128720D01*
X586798Y147880D01*
X586851Y147954D01*
X586911Y148023D01*
X586923Y148053D01*
X586942Y148080D01*
X586969Y148167D01*
X587003Y148251D01*
X587007Y148292D01*
X587014Y148315D01*
X587013Y148347D01*
X587021Y148418D01*
X587021Y156492D01*
X592808Y162279D01*
X626754Y162279D01*
X626844Y162293D01*
X626935Y162301D01*
X626965Y162313D01*
X626997Y162318D01*
X627077Y162361D01*
X627161Y162397D01*
X627193Y162423D01*
X627214Y162434D01*
X627236Y162457D01*
X627292Y162502D01*
X656673Y191882D01*
X656741Y191978D01*
X656814Y192078D01*
X656815Y192080D01*
X656816Y192082D01*
X656851Y192195D01*
X656888Y192313D01*
X656888Y192315D01*
X656889Y192317D01*
X656886Y192434D01*
X656883Y192559D01*
X656882Y192561D01*
X656882Y192563D01*
X656840Y192678D01*
X656800Y192790D01*
X656799Y192792D01*
X656798Y192794D01*
X656722Y192889D01*
X656647Y192983D01*
X656645Y192984D01*
X656644Y192986D01*
X656542Y193052D01*
X656441Y193117D01*
X656439Y193118D01*
X656437Y193119D01*
X656321Y193148D01*
X656203Y193179D01*
X656200Y193179D01*
X656199Y193179D01*
X656191Y193178D01*
X656035Y193175D01*
X655319Y193081D01*
X655319Y209932D01*
X672170Y209932D01*
X672076Y209216D01*
X672080Y209094D01*
X672083Y208974D01*
X672083Y208972D01*
X672084Y208970D01*
X672126Y208857D01*
X672167Y208743D01*
X672169Y208741D01*
X672169Y208740D01*
X672246Y208645D01*
X672321Y208551D01*
X672323Y208550D01*
X672324Y208548D01*
X672426Y208483D01*
X672528Y208418D01*
X672530Y208418D01*
X672532Y208416D01*
X672650Y208387D01*
X672766Y208358D01*
X672768Y208358D01*
X672770Y208358D01*
X672894Y208368D01*
X673012Y208377D01*
X673013Y208378D01*
X673016Y208378D01*
X673131Y208428D01*
X673238Y208473D01*
X673240Y208475D01*
X673241Y208476D01*
X673248Y208481D01*
X673369Y208578D01*
X682528Y217738D01*
X682581Y217812D01*
X682641Y217881D01*
X682653Y217911D01*
X682672Y217937D01*
X682699Y218024D01*
X682733Y218109D01*
X682737Y218150D01*
X682744Y218173D01*
X682743Y218205D01*
X682751Y218276D01*
X682751Y341322D01*
X682749Y341335D01*
X682750Y341344D01*
X682740Y341392D01*
X682737Y341412D01*
X682729Y341503D01*
X682717Y341533D01*
X682712Y341565D01*
X682669Y341645D01*
X682633Y341729D01*
X682607Y341761D01*
X682596Y341782D01*
X682573Y341804D01*
X682528Y341860D01*
X665710Y358678D01*
X665636Y358731D01*
X665567Y358791D01*
X665537Y358803D01*
X665510Y358822D01*
X665423Y358849D01*
X665339Y358883D01*
X665298Y358887D01*
X665275Y358894D01*
X665243Y358893D01*
X665172Y358901D01*
X577541Y358901D01*
X577471Y358890D01*
X577399Y358888D01*
X577350Y358870D01*
X577299Y358862D01*
X577235Y358828D01*
X577168Y358803D01*
X577127Y358771D01*
X577081Y358746D01*
X577032Y358694D01*
X576976Y358650D01*
X576948Y358606D01*
X576912Y358568D01*
X576882Y358503D01*
X576843Y358443D01*
X576830Y358392D01*
X576808Y358345D01*
X576800Y358274D01*
X576783Y358204D01*
X576787Y358152D01*
X576781Y358101D01*
X576796Y358030D01*
X576802Y357959D01*
X576822Y357911D01*
X576833Y357860D01*
X576870Y357799D01*
X576898Y357733D01*
X576943Y357677D01*
X576960Y357649D01*
X576977Y357634D01*
X577003Y357602D01*
X579347Y355258D01*
X579347Y350862D01*
X576238Y347753D01*
X571842Y347753D01*
X568733Y350862D01*
X568733Y353740D01*
X568719Y353830D01*
X568711Y353921D01*
X568699Y353951D01*
X568694Y353983D01*
X568651Y354063D01*
X568615Y354147D01*
X568589Y354179D01*
X568578Y354200D01*
X568555Y354222D01*
X568510Y354278D01*
X564110Y358678D01*
X564036Y358731D01*
X563967Y358791D01*
X563937Y358803D01*
X563910Y358822D01*
X563823Y358849D01*
X563739Y358883D01*
X563698Y358887D01*
X563675Y358894D01*
X563643Y358893D01*
X563572Y358901D01*
X501341Y358901D01*
X501251Y358887D01*
X501160Y358879D01*
X501131Y358867D01*
X501099Y358862D01*
X501018Y358819D01*
X500934Y358783D01*
X500902Y358757D01*
X500881Y358746D01*
X500859Y358723D01*
X500803Y358678D01*
X498768Y356643D01*
X494372Y356643D01*
X491263Y359752D01*
X491263Y364148D01*
X494372Y367257D01*
X498768Y367257D01*
X500803Y365222D01*
X500877Y365169D01*
X500947Y365109D01*
X500977Y365097D01*
X501003Y365078D01*
X501090Y365051D01*
X501175Y365017D01*
X501216Y365013D01*
X501238Y365006D01*
X501270Y365007D01*
X501341Y364999D01*
X668013Y364999D01*
X686840Y346172D01*
X686898Y346130D01*
X686950Y346081D01*
X686997Y346059D01*
X687039Y346028D01*
X687108Y346007D01*
X687173Y345977D01*
X687225Y345971D01*
X687275Y345956D01*
X687346Y345958D01*
X687417Y345950D01*
X687468Y345961D01*
X687520Y345962D01*
X687588Y345987D01*
X687658Y346002D01*
X687703Y346029D01*
X687751Y346047D01*
X687807Y346092D01*
X687869Y346128D01*
X687903Y346168D01*
X687943Y346200D01*
X687982Y346261D01*
X688029Y346315D01*
X688048Y346364D01*
X688076Y346407D01*
X688094Y346477D01*
X688121Y346543D01*
X688129Y346615D01*
X688137Y346646D01*
X688135Y346669D01*
X688139Y346710D01*
X688139Y582678D01*
X688136Y582698D01*
X688138Y582717D01*
X688116Y582819D01*
X688100Y582921D01*
X688090Y582938D01*
X688086Y582958D01*
X688033Y583047D01*
X687984Y583138D01*
X687970Y583152D01*
X687960Y583169D01*
X687881Y583236D01*
X687806Y583308D01*
X687788Y583316D01*
X687773Y583329D01*
X687677Y583368D01*
X687583Y583411D01*
X687563Y583413D01*
X687545Y583421D01*
X687378Y583439D01*
X10922Y583439D01*
X10902Y583436D01*
X10883Y583438D01*
X10781Y583416D01*
X10679Y583400D01*
X10662Y583390D01*
X10642Y583386D01*
X10553Y583333D01*
X10462Y583284D01*
X10448Y583270D01*
X10431Y583260D01*
X10364Y583181D01*
X10292Y583106D01*
X10284Y583088D01*
X10271Y583073D01*
X10232Y582977D01*
X10189Y582883D01*
X10187Y582863D01*
X10179Y582845D01*
X10161Y582678D01*
X10161Y10922D01*
X10164Y10902D01*
X10162Y10883D01*
X10184Y10781D01*
X10200Y10679D01*
X10210Y10662D01*
X10214Y10642D01*
X10267Y10553D01*
X10316Y10462D01*
X10330Y10448D01*
X10340Y10431D01*
X10419Y10364D01*
X10494Y10292D01*
X10512Y10284D01*
X10527Y10271D01*
X10623Y10232D01*
X10717Y10189D01*
X10737Y10187D01*
X10755Y10179D01*
X10922Y10161D01*
X687378Y10161D01*
X687398Y10164D01*
G37*
G36*
X539578Y51852D02*
X539578Y51852D01*
X539649Y51858D01*
X539697Y51878D01*
X539748Y51889D01*
X539809Y51926D01*
X539875Y51954D01*
X539931Y51999D01*
X539959Y52015D01*
X539974Y52033D01*
X540006Y52059D01*
X549940Y61993D01*
X549993Y62067D01*
X550053Y62136D01*
X550065Y62166D01*
X550084Y62192D01*
X550111Y62279D01*
X550145Y62364D01*
X550149Y62405D01*
X550156Y62428D01*
X550155Y62460D01*
X550163Y62531D01*
X550163Y87177D01*
X550149Y87267D01*
X550141Y87358D01*
X550129Y87387D01*
X550124Y87419D01*
X550081Y87500D01*
X550045Y87584D01*
X550019Y87616D01*
X550008Y87637D01*
X549985Y87659D01*
X549940Y87715D01*
X547143Y90512D01*
X547143Y94908D01*
X550252Y98017D01*
X554208Y98017D01*
X554298Y98031D01*
X554389Y98039D01*
X554418Y98051D01*
X554450Y98056D01*
X554531Y98099D01*
X554615Y98135D01*
X554647Y98161D01*
X554668Y98172D01*
X554690Y98195D01*
X554746Y98240D01*
X594390Y137884D01*
X594443Y137958D01*
X594503Y138028D01*
X594515Y138058D01*
X594534Y138084D01*
X594561Y138171D01*
X594595Y138256D01*
X594599Y138297D01*
X594606Y138319D01*
X594605Y138351D01*
X594613Y138422D01*
X594613Y145234D01*
X594602Y145305D01*
X594600Y145376D01*
X594582Y145425D01*
X594574Y145477D01*
X594540Y145540D01*
X594515Y145607D01*
X594483Y145648D01*
X594458Y145694D01*
X594406Y145743D01*
X594362Y145799D01*
X594318Y145828D01*
X594280Y145863D01*
X594215Y145894D01*
X594155Y145932D01*
X594104Y145945D01*
X594057Y145967D01*
X593986Y145975D01*
X593916Y145992D01*
X593864Y145988D01*
X593813Y145994D01*
X593742Y145979D01*
X593671Y145973D01*
X593623Y145953D01*
X593572Y145942D01*
X593511Y145905D01*
X593445Y145877D01*
X593389Y145832D01*
X593361Y145816D01*
X593346Y145798D01*
X593314Y145772D01*
X591110Y143568D01*
X571950Y124408D01*
X571897Y124334D01*
X571837Y124265D01*
X571825Y124235D01*
X571806Y124208D01*
X571779Y124121D01*
X571745Y124037D01*
X571741Y123996D01*
X571734Y123973D01*
X571735Y123941D01*
X571727Y123870D01*
X571727Y120992D01*
X568618Y117883D01*
X565740Y117883D01*
X565650Y117869D01*
X565559Y117861D01*
X565529Y117849D01*
X565497Y117844D01*
X565417Y117801D01*
X565333Y117765D01*
X565301Y117739D01*
X565280Y117728D01*
X565258Y117705D01*
X565202Y117660D01*
X558793Y111251D01*
X497531Y111251D01*
X497460Y111240D01*
X497389Y111238D01*
X497340Y111220D01*
X497289Y111212D01*
X497225Y111178D01*
X497158Y111153D01*
X497117Y111121D01*
X497071Y111096D01*
X497022Y111044D01*
X496966Y110999D01*
X496938Y110956D01*
X496902Y110918D01*
X496872Y110853D01*
X496833Y110792D01*
X496820Y110742D01*
X496798Y110695D01*
X496790Y110623D01*
X496773Y110554D01*
X496777Y110502D01*
X496771Y110451D01*
X496786Y110380D01*
X496792Y110309D01*
X496797Y110298D01*
X496797Y105752D01*
X494762Y103717D01*
X494709Y103643D01*
X494649Y103573D01*
X494637Y103543D01*
X494618Y103517D01*
X494591Y103430D01*
X494557Y103345D01*
X494553Y103304D01*
X494546Y103282D01*
X494547Y103250D01*
X494539Y103179D01*
X494539Y83827D01*
X471163Y60451D01*
X357178Y60451D01*
X357088Y60437D01*
X356997Y60429D01*
X356967Y60417D01*
X356935Y60412D01*
X356855Y60369D01*
X356771Y60333D01*
X356739Y60307D01*
X356718Y60296D01*
X356696Y60273D01*
X356640Y60228D01*
X355062Y58650D01*
X353053Y56641D01*
X350211Y56641D01*
X350121Y56627D01*
X350030Y56619D01*
X350001Y56607D01*
X349969Y56602D01*
X349888Y56559D01*
X349804Y56523D01*
X349772Y56497D01*
X349751Y56486D01*
X349729Y56463D01*
X349673Y56418D01*
X347641Y54386D01*
X347599Y54328D01*
X347550Y54276D01*
X347528Y54229D01*
X347498Y54187D01*
X347476Y54118D01*
X347446Y54053D01*
X347441Y54001D01*
X347425Y53951D01*
X347427Y53880D01*
X347419Y53809D01*
X347430Y53758D01*
X347432Y53706D01*
X347456Y53638D01*
X347471Y53568D01*
X347498Y53523D01*
X347516Y53475D01*
X347561Y53419D01*
X347598Y53357D01*
X347637Y53323D01*
X347670Y53283D01*
X347730Y53244D01*
X347785Y53197D01*
X347833Y53178D01*
X347877Y53150D01*
X347946Y53132D01*
X348013Y53105D01*
X348084Y53097D01*
X348115Y53089D01*
X348138Y53091D01*
X348179Y53087D01*
X527867Y53087D01*
X527957Y53101D01*
X528048Y53109D01*
X528077Y53121D01*
X528109Y53126D01*
X528190Y53169D01*
X528274Y53205D01*
X528306Y53231D01*
X528327Y53242D01*
X528349Y53265D01*
X528405Y53310D01*
X531202Y56107D01*
X535598Y56107D01*
X538707Y52998D01*
X538707Y52597D01*
X538718Y52526D01*
X538720Y52455D01*
X538738Y52406D01*
X538746Y52354D01*
X538780Y52291D01*
X538805Y52224D01*
X538837Y52183D01*
X538862Y52137D01*
X538914Y52087D01*
X538958Y52031D01*
X539002Y52003D01*
X539040Y51967D01*
X539105Y51937D01*
X539165Y51898D01*
X539216Y51886D01*
X539263Y51864D01*
X539334Y51856D01*
X539404Y51838D01*
X539456Y51842D01*
X539507Y51837D01*
X539578Y51852D01*
G37*
%LPC*%
G36*
X68818Y505175D02*
X68818Y505175D01*
X60546Y507392D01*
X53129Y511674D01*
X47074Y517729D01*
X42792Y525146D01*
X40575Y533418D01*
X40575Y541982D01*
X42792Y550254D01*
X47074Y557671D01*
X53129Y563726D01*
X60546Y568008D01*
X68818Y570225D01*
X77382Y570225D01*
X85654Y568008D01*
X93071Y563726D01*
X99126Y557671D01*
X103408Y550254D01*
X105625Y541982D01*
X105625Y533418D01*
X103408Y525146D01*
X99126Y517729D01*
X93071Y511674D01*
X85654Y507392D01*
X77382Y505175D01*
X68818Y505175D01*
G37*
%LPD*%
%LPC*%
G36*
X648818Y15175D02*
X648818Y15175D01*
X640546Y17392D01*
X633129Y21674D01*
X627074Y27729D01*
X622792Y35146D01*
X620575Y43418D01*
X620575Y51982D01*
X622792Y60254D01*
X627074Y67671D01*
X633129Y73726D01*
X640546Y78008D01*
X648818Y80225D01*
X657382Y80225D01*
X665654Y78008D01*
X673071Y73726D01*
X679126Y67671D01*
X683408Y60254D01*
X685625Y51982D01*
X685625Y43418D01*
X683408Y35146D01*
X679126Y27729D01*
X673071Y21674D01*
X665654Y17392D01*
X657382Y15175D01*
X648818Y15175D01*
G37*
%LPD*%
%LPC*%
G36*
X68818Y15175D02*
X68818Y15175D01*
X60546Y17392D01*
X53129Y21674D01*
X47074Y27729D01*
X42792Y35146D01*
X40575Y43418D01*
X40575Y51982D01*
X42792Y60254D01*
X47074Y67671D01*
X53129Y73726D01*
X60546Y78008D01*
X68818Y80225D01*
X77382Y80225D01*
X85654Y78008D01*
X93071Y73726D01*
X99126Y67671D01*
X103408Y60254D01*
X105625Y51982D01*
X105625Y43418D01*
X103408Y35146D01*
X99126Y27729D01*
X93071Y21674D01*
X85654Y17392D01*
X77382Y15175D01*
X68818Y15175D01*
G37*
%LPD*%
%LPC*%
G36*
X648818Y505175D02*
X648818Y505175D01*
X640546Y507392D01*
X633129Y511674D01*
X627074Y517729D01*
X622792Y525146D01*
X620575Y533418D01*
X620575Y541982D01*
X622792Y550254D01*
X627074Y557671D01*
X633129Y563726D01*
X640546Y568008D01*
X648818Y570225D01*
X657382Y570225D01*
X665654Y568008D01*
X673071Y563726D01*
X679126Y557671D01*
X683408Y550254D01*
X685625Y541982D01*
X685625Y533418D01*
X683408Y525146D01*
X679126Y517729D01*
X673071Y511674D01*
X665654Y507392D01*
X657382Y505175D01*
X648818Y505175D01*
G37*
%LPD*%
%LPC*%
G36*
X443572Y336323D02*
X443572Y336323D01*
X440463Y339432D01*
X440463Y343828D01*
X442978Y346343D01*
X443031Y346417D01*
X443091Y346487D01*
X443103Y346517D01*
X443122Y346543D01*
X443149Y346630D01*
X443183Y346715D01*
X443187Y346756D01*
X443194Y346778D01*
X443193Y346810D01*
X443201Y346881D01*
X443201Y364009D01*
X443190Y364079D01*
X443188Y364151D01*
X443170Y364200D01*
X443162Y364251D01*
X443128Y364315D01*
X443103Y364382D01*
X443071Y364423D01*
X443046Y364469D01*
X442994Y364518D01*
X442950Y364574D01*
X442906Y364602D01*
X442868Y364638D01*
X442803Y364668D01*
X442743Y364707D01*
X442692Y364720D01*
X442645Y364742D01*
X442574Y364750D01*
X442504Y364767D01*
X442452Y364763D01*
X442401Y364769D01*
X442330Y364754D01*
X442259Y364748D01*
X442211Y364728D01*
X442160Y364717D01*
X442099Y364680D01*
X442033Y364652D01*
X441977Y364607D01*
X441949Y364590D01*
X441934Y364573D01*
X441902Y364547D01*
X441618Y364263D01*
X437222Y364263D01*
X434113Y367372D01*
X434113Y371768D01*
X436910Y374565D01*
X436963Y374639D01*
X437023Y374709D01*
X437035Y374739D01*
X437054Y374765D01*
X437081Y374852D01*
X437115Y374937D01*
X437119Y374978D01*
X437126Y375000D01*
X437125Y375032D01*
X437133Y375103D01*
X437133Y424187D01*
X437119Y424278D01*
X437111Y424368D01*
X437099Y424398D01*
X437094Y424430D01*
X437051Y424511D01*
X437015Y424595D01*
X436989Y424627D01*
X436978Y424648D01*
X436955Y424670D01*
X436910Y424726D01*
X432346Y429290D01*
X432272Y429343D01*
X432202Y429403D01*
X432172Y429415D01*
X432146Y429434D01*
X432059Y429461D01*
X431974Y429495D01*
X431933Y429499D01*
X431911Y429506D01*
X431879Y429505D01*
X431807Y429513D01*
X272233Y429513D01*
X272143Y429499D01*
X272052Y429491D01*
X272023Y429479D01*
X271991Y429474D01*
X271910Y429431D01*
X271826Y429395D01*
X271794Y429369D01*
X271773Y429358D01*
X271751Y429335D01*
X271695Y429290D01*
X268898Y426493D01*
X264502Y426493D01*
X261393Y429602D01*
X261393Y433998D01*
X264502Y437107D01*
X268898Y437107D01*
X271695Y434310D01*
X271769Y434257D01*
X271839Y434197D01*
X271869Y434185D01*
X271895Y434166D01*
X271982Y434139D01*
X272067Y434105D01*
X272108Y434101D01*
X272130Y434094D01*
X272162Y434095D01*
X272233Y434087D01*
X430022Y434087D01*
X430093Y434098D01*
X430165Y434100D01*
X430214Y434118D01*
X430265Y434126D01*
X430328Y434160D01*
X430396Y434185D01*
X430436Y434217D01*
X430482Y434242D01*
X430532Y434294D01*
X430588Y434338D01*
X430616Y434382D01*
X430652Y434420D01*
X430682Y434485D01*
X430721Y434545D01*
X430733Y434596D01*
X430755Y434643D01*
X430763Y434714D01*
X430781Y434784D01*
X430777Y434836D01*
X430782Y434887D01*
X430767Y434958D01*
X430762Y435029D01*
X430741Y435077D01*
X430730Y435128D01*
X430693Y435189D01*
X430665Y435255D01*
X430620Y435311D01*
X430604Y435339D01*
X430586Y435354D01*
X430560Y435386D01*
X401096Y464850D01*
X401022Y464903D01*
X400953Y464963D01*
X400923Y464975D01*
X400897Y464994D01*
X400810Y465021D01*
X400725Y465055D01*
X400684Y465059D01*
X400662Y465066D01*
X400629Y465065D01*
X400558Y465073D01*
X192758Y465073D01*
X192738Y465070D01*
X192719Y465072D01*
X192617Y465050D01*
X192515Y465034D01*
X192498Y465024D01*
X192478Y465020D01*
X192389Y464967D01*
X192298Y464918D01*
X192284Y464904D01*
X192267Y464894D01*
X192200Y464815D01*
X192128Y464740D01*
X192120Y464722D01*
X192107Y464707D01*
X192068Y464611D01*
X192025Y464517D01*
X192023Y464497D01*
X192015Y464479D01*
X191997Y464312D01*
X191997Y463892D01*
X188888Y460783D01*
X184492Y460783D01*
X181383Y463892D01*
X181383Y468288D01*
X184492Y471397D01*
X188888Y471397D01*
X190415Y469870D01*
X190489Y469817D01*
X190559Y469757D01*
X190589Y469745D01*
X190615Y469726D01*
X190702Y469699D01*
X190787Y469665D01*
X190828Y469661D01*
X190850Y469654D01*
X190882Y469655D01*
X190953Y469647D01*
X402768Y469647D01*
X447775Y424640D01*
X447775Y347445D01*
X447789Y347355D01*
X447797Y347264D01*
X447809Y347235D01*
X447814Y347203D01*
X447857Y347122D01*
X447893Y347038D01*
X447919Y347006D01*
X447930Y346985D01*
X447953Y346963D01*
X447998Y346907D01*
X451077Y343828D01*
X451077Y339432D01*
X447968Y336323D01*
X443572Y336323D01*
G37*
%LPD*%
%LPC*%
G36*
X188302Y388393D02*
X188302Y388393D01*
X185193Y391502D01*
X185193Y395898D01*
X187990Y398695D01*
X188043Y398769D01*
X188103Y398839D01*
X188115Y398869D01*
X188134Y398895D01*
X188161Y398982D01*
X188195Y399067D01*
X188199Y399108D01*
X188206Y399130D01*
X188205Y399162D01*
X188213Y399233D01*
X188213Y421751D01*
X188199Y421841D01*
X188191Y421932D01*
X188179Y421961D01*
X188174Y421993D01*
X188131Y422074D01*
X188095Y422158D01*
X188069Y422190D01*
X188058Y422211D01*
X188035Y422233D01*
X187990Y422289D01*
X185193Y425086D01*
X185193Y429482D01*
X185477Y429766D01*
X185519Y429824D01*
X185568Y429876D01*
X185590Y429923D01*
X185620Y429965D01*
X185642Y430034D01*
X185672Y430099D01*
X185677Y430151D01*
X185693Y430201D01*
X185691Y430272D01*
X185699Y430343D01*
X185688Y430394D01*
X185686Y430446D01*
X185662Y430514D01*
X185647Y430584D01*
X185620Y430629D01*
X185602Y430677D01*
X185557Y430733D01*
X185520Y430795D01*
X185481Y430829D01*
X185448Y430869D01*
X185388Y430908D01*
X185333Y430955D01*
X185285Y430974D01*
X185241Y431002D01*
X185172Y431020D01*
X185105Y431047D01*
X185034Y431055D01*
X185003Y431063D01*
X184980Y431061D01*
X184939Y431065D01*
X129993Y431065D01*
X129903Y431051D01*
X129812Y431043D01*
X129783Y431031D01*
X129751Y431026D01*
X129670Y430983D01*
X129586Y430947D01*
X129554Y430921D01*
X129533Y430910D01*
X129511Y430887D01*
X129455Y430842D01*
X126658Y428045D01*
X122262Y428045D01*
X119153Y431154D01*
X119153Y435550D01*
X119437Y435834D01*
X119479Y435892D01*
X119528Y435944D01*
X119550Y435991D01*
X119580Y436033D01*
X119602Y436102D01*
X119632Y436167D01*
X119637Y436219D01*
X119653Y436269D01*
X119651Y436340D01*
X119659Y436411D01*
X119648Y436462D01*
X119646Y436514D01*
X119622Y436582D01*
X119607Y436652D01*
X119580Y436697D01*
X119562Y436745D01*
X119517Y436801D01*
X119480Y436863D01*
X119441Y436897D01*
X119408Y436937D01*
X119348Y436976D01*
X119293Y437023D01*
X119245Y437042D01*
X119201Y437070D01*
X119132Y437088D01*
X119065Y437115D01*
X118994Y437123D01*
X118963Y437131D01*
X118940Y437129D01*
X118899Y437133D01*
X113483Y437133D01*
X113393Y437119D01*
X113302Y437111D01*
X113273Y437099D01*
X113241Y437094D01*
X113160Y437051D01*
X113076Y437015D01*
X113044Y436989D01*
X113023Y436978D01*
X113001Y436955D01*
X112945Y436910D01*
X110148Y434113D01*
X105752Y434113D01*
X102643Y437222D01*
X102643Y441618D01*
X105752Y444727D01*
X110148Y444727D01*
X112945Y441930D01*
X113019Y441877D01*
X113089Y441817D01*
X113119Y441805D01*
X113145Y441786D01*
X113232Y441759D01*
X113317Y441725D01*
X113358Y441721D01*
X113380Y441714D01*
X113412Y441715D01*
X113483Y441707D01*
X212907Y441707D01*
X212997Y441721D01*
X213088Y441729D01*
X213117Y441741D01*
X213149Y441746D01*
X213230Y441789D01*
X213314Y441825D01*
X213346Y441851D01*
X213367Y441862D01*
X213389Y441885D01*
X213445Y441930D01*
X216242Y444727D01*
X220638Y444727D01*
X223747Y441618D01*
X223747Y441369D01*
X223758Y441299D01*
X223760Y441227D01*
X223778Y441178D01*
X223786Y441127D01*
X223820Y441063D01*
X223845Y440996D01*
X223877Y440955D01*
X223902Y440909D01*
X223954Y440860D01*
X223998Y440804D01*
X224042Y440776D01*
X224080Y440740D01*
X224145Y440710D01*
X224205Y440671D01*
X224256Y440658D01*
X224303Y440636D01*
X224374Y440628D01*
X224444Y440611D01*
X224496Y440615D01*
X224547Y440609D01*
X224618Y440624D01*
X224689Y440630D01*
X224737Y440650D01*
X224788Y440661D01*
X224849Y440698D01*
X224915Y440726D01*
X224971Y440771D01*
X224999Y440788D01*
X225014Y440805D01*
X225046Y440831D01*
X227672Y443457D01*
X232068Y443457D01*
X235177Y440348D01*
X235177Y435952D01*
X232068Y432843D01*
X228113Y432843D01*
X228022Y432829D01*
X227932Y432821D01*
X227902Y432809D01*
X227870Y432804D01*
X227789Y432761D01*
X227705Y432725D01*
X227673Y432699D01*
X227652Y432688D01*
X227630Y432665D01*
X227574Y432620D01*
X226019Y431065D01*
X196061Y431065D01*
X195991Y431054D01*
X195919Y431052D01*
X195870Y431034D01*
X195819Y431026D01*
X195755Y430992D01*
X195688Y430967D01*
X195647Y430935D01*
X195601Y430910D01*
X195552Y430858D01*
X195496Y430814D01*
X195468Y430770D01*
X195432Y430732D01*
X195402Y430667D01*
X195363Y430607D01*
X195350Y430556D01*
X195328Y430509D01*
X195320Y430438D01*
X195303Y430368D01*
X195307Y430316D01*
X195301Y430265D01*
X195316Y430194D01*
X195322Y430123D01*
X195342Y430075D01*
X195353Y430024D01*
X195390Y429963D01*
X195418Y429897D01*
X195463Y429841D01*
X195480Y429813D01*
X195497Y429798D01*
X195523Y429766D01*
X195807Y429482D01*
X195807Y425086D01*
X193010Y422289D01*
X192957Y422215D01*
X192897Y422145D01*
X192885Y422115D01*
X192866Y422089D01*
X192839Y422002D01*
X192805Y421917D01*
X192801Y421876D01*
X192794Y421854D01*
X192795Y421822D01*
X192787Y421751D01*
X192787Y399233D01*
X192801Y399143D01*
X192809Y399052D01*
X192821Y399023D01*
X192826Y398991D01*
X192869Y398910D01*
X192905Y398826D01*
X192931Y398794D01*
X192942Y398773D01*
X192965Y398751D01*
X193010Y398695D01*
X195807Y395898D01*
X195807Y391502D01*
X192698Y388393D01*
X188302Y388393D01*
G37*
%LPD*%
%LPC*%
G36*
X150057Y175178D02*
X150057Y175178D01*
X146949Y178287D01*
X146949Y182683D01*
X150057Y185791D01*
X152935Y185791D01*
X153025Y185806D01*
X153116Y185813D01*
X153146Y185826D01*
X153178Y185831D01*
X153259Y185874D01*
X153342Y185910D01*
X153375Y185935D01*
X153395Y185946D01*
X153417Y185970D01*
X153473Y186014D01*
X159738Y192279D01*
X223829Y192279D01*
X223919Y192293D01*
X224010Y192301D01*
X224039Y192313D01*
X224071Y192318D01*
X224152Y192361D01*
X224236Y192397D01*
X224268Y192423D01*
X224289Y192434D01*
X224311Y192457D01*
X224367Y192502D01*
X226402Y194537D01*
X230798Y194537D01*
X233907Y191428D01*
X233907Y187032D01*
X230798Y183923D01*
X226402Y183923D01*
X224367Y185958D01*
X224293Y186011D01*
X224223Y186071D01*
X224193Y186083D01*
X224167Y186102D01*
X224080Y186129D01*
X223995Y186163D01*
X223954Y186167D01*
X223932Y186174D01*
X223900Y186173D01*
X223829Y186181D01*
X162579Y186181D01*
X162489Y186167D01*
X162398Y186159D01*
X162368Y186147D01*
X162336Y186142D01*
X162255Y186099D01*
X162171Y186063D01*
X162139Y186037D01*
X162119Y186026D01*
X162096Y186003D01*
X162040Y185958D01*
X157785Y181703D01*
X157732Y181629D01*
X157672Y181559D01*
X157660Y181529D01*
X157641Y181503D01*
X157615Y181416D01*
X157580Y181331D01*
X157576Y181290D01*
X157569Y181268D01*
X157570Y181236D01*
X157562Y181165D01*
X157562Y178287D01*
X154453Y175178D01*
X150057Y175178D01*
G37*
%LPD*%
%LPC*%
G36*
X340702Y489993D02*
X340702Y489993D01*
X337593Y493102D01*
X337593Y497498D01*
X340702Y500607D01*
X345098Y500607D01*
X347895Y497810D01*
X347969Y497757D01*
X348039Y497697D01*
X348069Y497685D01*
X348095Y497666D01*
X348182Y497639D01*
X348267Y497605D01*
X348308Y497601D01*
X348330Y497594D01*
X348362Y497595D01*
X348433Y497587D01*
X424997Y497587D01*
X425087Y497601D01*
X425178Y497609D01*
X425207Y497621D01*
X425239Y497626D01*
X425320Y497669D01*
X425404Y497705D01*
X425436Y497731D01*
X425457Y497742D01*
X425479Y497765D01*
X425535Y497810D01*
X428332Y500607D01*
X432728Y500607D01*
X435837Y497498D01*
X435837Y493102D01*
X432728Y489993D01*
X428332Y489993D01*
X425535Y492790D01*
X425461Y492843D01*
X425391Y492903D01*
X425361Y492915D01*
X425335Y492934D01*
X425248Y492961D01*
X425163Y492995D01*
X425122Y492999D01*
X425100Y493006D01*
X425068Y493005D01*
X424997Y493013D01*
X348433Y493013D01*
X348343Y492999D01*
X348252Y492991D01*
X348223Y492979D01*
X348191Y492974D01*
X348110Y492931D01*
X348026Y492895D01*
X347994Y492869D01*
X347973Y492858D01*
X347951Y492835D01*
X347895Y492790D01*
X345098Y489993D01*
X340702Y489993D01*
G37*
%LPD*%
%LPC*%
G36*
X230212Y473483D02*
X230212Y473483D01*
X227103Y476592D01*
X227103Y479470D01*
X227089Y479560D01*
X227081Y479651D01*
X227069Y479681D01*
X227064Y479713D01*
X227021Y479793D01*
X226985Y479877D01*
X226959Y479909D01*
X226948Y479930D01*
X226925Y479952D01*
X226880Y480008D01*
X214860Y492028D01*
X214786Y492081D01*
X214717Y492141D01*
X214687Y492153D01*
X214660Y492172D01*
X214573Y492199D01*
X214489Y492233D01*
X214448Y492237D01*
X214425Y492244D01*
X214393Y492243D01*
X214322Y492251D01*
X177491Y492251D01*
X177401Y492237D01*
X177310Y492229D01*
X177281Y492217D01*
X177249Y492212D01*
X177168Y492169D01*
X177084Y492133D01*
X177052Y492107D01*
X177031Y492096D01*
X177009Y492073D01*
X176953Y492028D01*
X174918Y489993D01*
X170522Y489993D01*
X167413Y493102D01*
X167413Y497498D01*
X170522Y500607D01*
X174918Y500607D01*
X176953Y498572D01*
X177027Y498519D01*
X177097Y498459D01*
X177127Y498447D01*
X177153Y498428D01*
X177240Y498401D01*
X177325Y498367D01*
X177366Y498363D01*
X177388Y498356D01*
X177420Y498357D01*
X177491Y498349D01*
X217163Y498349D01*
X231192Y484320D01*
X231266Y484267D01*
X231335Y484207D01*
X231365Y484195D01*
X231392Y484176D01*
X231479Y484149D01*
X231563Y484115D01*
X231604Y484111D01*
X231627Y484104D01*
X231659Y484105D01*
X231730Y484097D01*
X234608Y484097D01*
X237717Y480988D01*
X237717Y476592D01*
X234608Y473483D01*
X230212Y473483D01*
G37*
%LPD*%
%LPC*%
G36*
X450903Y166845D02*
X450903Y166845D01*
X448766Y167731D01*
X447131Y169366D01*
X446245Y171503D01*
X446245Y173489D01*
X446231Y173579D01*
X446223Y173670D01*
X446211Y173699D01*
X446206Y173731D01*
X446163Y173812D01*
X446127Y173896D01*
X446101Y173928D01*
X446090Y173949D01*
X446067Y173971D01*
X446022Y174027D01*
X422625Y197425D01*
X422608Y197436D01*
X422596Y197452D01*
X422509Y197508D01*
X422425Y197568D01*
X422406Y197574D01*
X422389Y197585D01*
X422289Y197610D01*
X422190Y197641D01*
X422170Y197640D01*
X422150Y197645D01*
X422047Y197637D01*
X421944Y197634D01*
X421925Y197627D01*
X421905Y197626D01*
X421810Y197585D01*
X421713Y197550D01*
X421697Y197537D01*
X421679Y197530D01*
X421548Y197425D01*
X421124Y197000D01*
X418987Y196115D01*
X416673Y196115D01*
X414536Y197001D01*
X412901Y198636D01*
X412015Y200773D01*
X412015Y203087D01*
X412901Y205224D01*
X414536Y206859D01*
X416673Y207745D01*
X418987Y207745D01*
X421124Y206859D01*
X422528Y205456D01*
X422602Y205403D01*
X422671Y205343D01*
X422701Y205331D01*
X422727Y205312D01*
X422814Y205285D01*
X422899Y205251D01*
X422940Y205247D01*
X422962Y205240D01*
X422995Y205241D01*
X423066Y205233D01*
X424158Y205233D01*
X450693Y178698D01*
X450767Y178645D01*
X450836Y178585D01*
X450867Y178573D01*
X450893Y178554D01*
X450980Y178527D01*
X451065Y178493D01*
X451106Y178489D01*
X451128Y178482D01*
X451160Y178483D01*
X451231Y178475D01*
X453217Y178475D01*
X455354Y177589D01*
X456989Y175954D01*
X457875Y173817D01*
X457875Y171503D01*
X456989Y169366D01*
X455354Y167731D01*
X453217Y166845D01*
X450903Y166845D01*
G37*
%LPD*%
%LPC*%
G36*
X61302Y362993D02*
X61302Y362993D01*
X58193Y366102D01*
X58193Y370498D01*
X61302Y373607D01*
X65698Y373607D01*
X68495Y370810D01*
X68569Y370757D01*
X68639Y370697D01*
X68669Y370685D01*
X68695Y370666D01*
X68782Y370639D01*
X68867Y370605D01*
X68908Y370601D01*
X68930Y370594D01*
X68962Y370595D01*
X69033Y370587D01*
X122202Y370587D01*
X122222Y370590D01*
X122241Y370588D01*
X122343Y370610D01*
X122445Y370626D01*
X122462Y370636D01*
X122482Y370640D01*
X122571Y370693D01*
X122662Y370742D01*
X122676Y370756D01*
X122693Y370766D01*
X122760Y370845D01*
X122832Y370920D01*
X122840Y370938D01*
X122853Y370953D01*
X122892Y371049D01*
X122935Y371143D01*
X122937Y371163D01*
X122945Y371181D01*
X122963Y371348D01*
X122963Y371768D01*
X126072Y374877D01*
X130468Y374877D01*
X133577Y371768D01*
X133577Y367372D01*
X130468Y364263D01*
X126072Y364263D01*
X124545Y365790D01*
X124471Y365843D01*
X124401Y365903D01*
X124371Y365915D01*
X124345Y365934D01*
X124258Y365961D01*
X124173Y365995D01*
X124132Y365999D01*
X124110Y366006D01*
X124078Y366005D01*
X124007Y366013D01*
X69033Y366013D01*
X68943Y365999D01*
X68852Y365991D01*
X68823Y365979D01*
X68791Y365974D01*
X68710Y365931D01*
X68626Y365895D01*
X68594Y365869D01*
X68573Y365858D01*
X68551Y365835D01*
X68495Y365790D01*
X65698Y362993D01*
X61302Y362993D01*
G37*
%LPD*%
%LPC*%
G36*
X112278Y514585D02*
X112278Y514585D01*
X111385Y515478D01*
X111385Y534522D01*
X112278Y535415D01*
X131322Y535415D01*
X132215Y534522D01*
X132215Y515478D01*
X131322Y514585D01*
X112278Y514585D01*
G37*
%LPD*%
%LPC*%
G36*
X58927Y285368D02*
X58927Y285368D01*
X58927Y302219D01*
X61005Y301946D01*
X63336Y301321D01*
X65567Y300397D01*
X67657Y299190D01*
X69572Y297720D01*
X71279Y296013D01*
X72749Y294098D01*
X73956Y292008D01*
X74220Y291370D01*
X74242Y291335D01*
X74256Y291295D01*
X74306Y291231D01*
X74350Y291161D01*
X74382Y291134D01*
X74408Y291101D01*
X74476Y291057D01*
X74539Y291004D01*
X74578Y290989D01*
X74613Y290966D01*
X74692Y290946D01*
X74769Y290916D01*
X74811Y290914D01*
X74851Y290904D01*
X74933Y290909D01*
X75014Y290906D01*
X75055Y290917D01*
X75097Y290920D01*
X75172Y290952D01*
X75251Y290974D01*
X75285Y290998D01*
X75324Y291014D01*
X75386Y291068D01*
X75453Y291115D01*
X75478Y291148D01*
X75509Y291176D01*
X75594Y291305D01*
X75600Y291312D01*
X75600Y291314D01*
X75602Y291316D01*
X75865Y291833D01*
X77275Y293774D01*
X78971Y295470D01*
X80912Y296880D01*
X83050Y297969D01*
X85331Y298710D01*
X87377Y299034D01*
X87377Y285368D01*
X58927Y285368D01*
G37*
%LPD*%
%LPC*%
G36*
X58927Y200278D02*
X58927Y200278D01*
X58927Y217129D01*
X61005Y216856D01*
X63336Y216231D01*
X65567Y215307D01*
X67657Y214100D01*
X69572Y212630D01*
X71279Y210923D01*
X72749Y209008D01*
X73956Y206918D01*
X74220Y206280D01*
X74242Y206245D01*
X74256Y206205D01*
X74306Y206141D01*
X74350Y206071D01*
X74382Y206044D01*
X74408Y206011D01*
X74476Y205967D01*
X74539Y205914D01*
X74578Y205899D01*
X74613Y205876D01*
X74692Y205856D01*
X74769Y205826D01*
X74811Y205824D01*
X74851Y205814D01*
X74933Y205819D01*
X75014Y205816D01*
X75055Y205827D01*
X75097Y205830D01*
X75172Y205862D01*
X75251Y205884D01*
X75285Y205908D01*
X75324Y205924D01*
X75386Y205978D01*
X75453Y206025D01*
X75478Y206058D01*
X75509Y206086D01*
X75594Y206215D01*
X75600Y206222D01*
X75600Y206224D01*
X75602Y206226D01*
X75865Y206743D01*
X77275Y208684D01*
X78971Y210380D01*
X80912Y211790D01*
X83050Y212879D01*
X85331Y213620D01*
X87377Y213944D01*
X87377Y200278D01*
X58927Y200278D01*
G37*
%LPD*%
%LPC*%
G36*
X623823Y212978D02*
X623823Y212978D01*
X623823Y226644D01*
X625869Y226320D01*
X628150Y225579D01*
X630288Y224490D01*
X632229Y223080D01*
X633925Y221384D01*
X635335Y219443D01*
X635598Y218926D01*
X635623Y218892D01*
X635640Y218854D01*
X635696Y218794D01*
X635744Y218728D01*
X635778Y218704D01*
X635807Y218673D01*
X635878Y218633D01*
X635945Y218586D01*
X635985Y218574D01*
X636022Y218554D01*
X636103Y218540D01*
X636181Y218516D01*
X636223Y218518D01*
X636264Y218510D01*
X636345Y218522D01*
X636427Y218525D01*
X636466Y218540D01*
X636508Y218546D01*
X636581Y218583D01*
X636657Y218612D01*
X636689Y218639D01*
X636727Y218658D01*
X636784Y218716D01*
X636847Y218768D01*
X636870Y218803D01*
X636899Y218833D01*
X636974Y218969D01*
X636978Y218976D01*
X636979Y218978D01*
X636980Y218980D01*
X637244Y219618D01*
X638451Y221708D01*
X639921Y223623D01*
X641628Y225330D01*
X643543Y226800D01*
X645633Y228007D01*
X647864Y228931D01*
X650195Y229556D01*
X652273Y229829D01*
X652273Y212978D01*
X623823Y212978D01*
G37*
%LPD*%
%LPC*%
G36*
X623823Y298068D02*
X623823Y298068D01*
X623823Y311734D01*
X625869Y311410D01*
X628150Y310669D01*
X630288Y309580D01*
X632229Y308170D01*
X633925Y306474D01*
X635335Y304533D01*
X635598Y304016D01*
X635623Y303982D01*
X635640Y303944D01*
X635696Y303884D01*
X635744Y303818D01*
X635778Y303794D01*
X635807Y303763D01*
X635878Y303723D01*
X635945Y303676D01*
X635985Y303664D01*
X636022Y303644D01*
X636103Y303630D01*
X636181Y303606D01*
X636223Y303608D01*
X636264Y303600D01*
X636345Y303612D01*
X636427Y303615D01*
X636466Y303630D01*
X636508Y303636D01*
X636581Y303673D01*
X636657Y303702D01*
X636689Y303729D01*
X636727Y303748D01*
X636784Y303806D01*
X636847Y303858D01*
X636870Y303893D01*
X636899Y303923D01*
X636974Y304059D01*
X636978Y304066D01*
X636979Y304068D01*
X636980Y304070D01*
X637244Y304708D01*
X638451Y306798D01*
X639921Y308713D01*
X641628Y310420D01*
X643543Y311890D01*
X645633Y313097D01*
X647864Y314021D01*
X650195Y314646D01*
X652273Y314919D01*
X652273Y298068D01*
X623823Y298068D01*
G37*
%LPD*%
%LPC*%
G36*
X58927Y197232D02*
X58927Y197232D01*
X87377Y197232D01*
X87377Y183566D01*
X85331Y183890D01*
X83050Y184631D01*
X80912Y185720D01*
X78971Y187130D01*
X77275Y188826D01*
X75865Y190767D01*
X75602Y191284D01*
X75577Y191318D01*
X75560Y191356D01*
X75504Y191416D01*
X75456Y191482D01*
X75422Y191506D01*
X75393Y191537D01*
X75322Y191577D01*
X75255Y191624D01*
X75215Y191636D01*
X75178Y191656D01*
X75097Y191670D01*
X75019Y191694D01*
X74977Y191692D01*
X74936Y191700D01*
X74855Y191688D01*
X74773Y191685D01*
X74734Y191670D01*
X74692Y191664D01*
X74619Y191627D01*
X74543Y191598D01*
X74511Y191571D01*
X74473Y191552D01*
X74416Y191494D01*
X74353Y191442D01*
X74330Y191407D01*
X74301Y191377D01*
X74226Y191241D01*
X74222Y191234D01*
X74221Y191232D01*
X74220Y191230D01*
X73956Y190592D01*
X72749Y188502D01*
X71279Y186587D01*
X69572Y184880D01*
X67657Y183410D01*
X65567Y182203D01*
X63336Y181279D01*
X61005Y180654D01*
X58927Y180381D01*
X58927Y197232D01*
G37*
%LPD*%
%LPC*%
G36*
X58927Y282322D02*
X58927Y282322D01*
X87377Y282322D01*
X87377Y268656D01*
X85331Y268980D01*
X83050Y269721D01*
X80912Y270810D01*
X78971Y272220D01*
X77275Y273916D01*
X75865Y275857D01*
X75602Y276374D01*
X75577Y276408D01*
X75560Y276446D01*
X75504Y276506D01*
X75456Y276572D01*
X75422Y276596D01*
X75393Y276627D01*
X75322Y276667D01*
X75255Y276714D01*
X75215Y276726D01*
X75178Y276746D01*
X75097Y276760D01*
X75019Y276784D01*
X74977Y276782D01*
X74936Y276790D01*
X74855Y276778D01*
X74773Y276775D01*
X74734Y276760D01*
X74692Y276754D01*
X74619Y276717D01*
X74543Y276688D01*
X74511Y276661D01*
X74473Y276642D01*
X74416Y276584D01*
X74353Y276532D01*
X74330Y276497D01*
X74301Y276467D01*
X74226Y276331D01*
X74222Y276324D01*
X74221Y276322D01*
X74220Y276320D01*
X73956Y275682D01*
X72749Y273592D01*
X71279Y271677D01*
X69572Y269970D01*
X67657Y268500D01*
X65567Y267293D01*
X63336Y266369D01*
X61005Y265744D01*
X58927Y265471D01*
X58927Y282322D01*
G37*
%LPD*%
%LPC*%
G36*
X650195Y278444D02*
X650195Y278444D01*
X647864Y279069D01*
X645633Y279993D01*
X643543Y281200D01*
X641628Y282670D01*
X639921Y284377D01*
X638451Y286292D01*
X637244Y288382D01*
X636980Y289020D01*
X636958Y289055D01*
X636944Y289095D01*
X636894Y289159D01*
X636850Y289229D01*
X636818Y289256D01*
X636792Y289289D01*
X636724Y289333D01*
X636661Y289386D01*
X636622Y289401D01*
X636587Y289424D01*
X636508Y289444D01*
X636431Y289474D01*
X636389Y289476D01*
X636349Y289486D01*
X636267Y289481D01*
X636186Y289484D01*
X636145Y289473D01*
X636103Y289470D01*
X636028Y289438D01*
X635949Y289416D01*
X635915Y289392D01*
X635876Y289376D01*
X635814Y289322D01*
X635747Y289275D01*
X635722Y289242D01*
X635691Y289214D01*
X635606Y289085D01*
X635600Y289078D01*
X635600Y289076D01*
X635598Y289074D01*
X635335Y288557D01*
X633925Y286616D01*
X632229Y284920D01*
X630288Y283510D01*
X628150Y282421D01*
X625869Y281680D01*
X623823Y281356D01*
X623823Y295022D01*
X652273Y295022D01*
X652273Y278171D01*
X650195Y278444D01*
G37*
%LPD*%
%LPC*%
G36*
X650195Y193354D02*
X650195Y193354D01*
X647864Y193979D01*
X645633Y194903D01*
X643543Y196110D01*
X641628Y197580D01*
X639921Y199287D01*
X638451Y201202D01*
X637244Y203292D01*
X636980Y203930D01*
X636958Y203965D01*
X636944Y204005D01*
X636894Y204069D01*
X636850Y204139D01*
X636818Y204166D01*
X636792Y204199D01*
X636724Y204243D01*
X636661Y204296D01*
X636622Y204311D01*
X636587Y204334D01*
X636508Y204354D01*
X636431Y204384D01*
X636389Y204386D01*
X636349Y204396D01*
X636267Y204391D01*
X636186Y204394D01*
X636145Y204383D01*
X636103Y204380D01*
X636028Y204348D01*
X635949Y204326D01*
X635915Y204302D01*
X635876Y204286D01*
X635814Y204232D01*
X635747Y204185D01*
X635722Y204152D01*
X635691Y204124D01*
X635606Y203995D01*
X635600Y203988D01*
X635600Y203986D01*
X635598Y203984D01*
X635335Y203467D01*
X633925Y201526D01*
X632229Y199830D01*
X630288Y198420D01*
X628150Y197331D01*
X625869Y196590D01*
X623823Y196266D01*
X623823Y209932D01*
X652273Y209932D01*
X652273Y193081D01*
X650195Y193354D01*
G37*
%LPD*%
%LPC*%
G36*
X576928Y539985D02*
X576928Y539985D01*
X573100Y541571D01*
X570171Y544500D01*
X568585Y548328D01*
X568585Y552472D01*
X570171Y556300D01*
X573100Y559229D01*
X576928Y560815D01*
X581072Y560815D01*
X584900Y559229D01*
X587829Y556300D01*
X589415Y552472D01*
X589415Y548328D01*
X587829Y544500D01*
X584900Y541571D01*
X581072Y539985D01*
X576928Y539985D01*
G37*
%LPD*%
%LPC*%
G36*
X602328Y539985D02*
X602328Y539985D01*
X598500Y541571D01*
X595571Y544500D01*
X593985Y548328D01*
X593985Y552472D01*
X595571Y556300D01*
X598500Y559229D01*
X602328Y560815D01*
X606472Y560815D01*
X610300Y559229D01*
X613229Y556300D01*
X614815Y552472D01*
X614815Y548328D01*
X613229Y544500D01*
X610300Y541571D01*
X606472Y539985D01*
X602328Y539985D01*
G37*
%LPD*%
%LPC*%
G36*
X221328Y539985D02*
X221328Y539985D01*
X217500Y541571D01*
X214571Y544500D01*
X212985Y548328D01*
X212985Y552472D01*
X214571Y556300D01*
X217500Y559229D01*
X221328Y560815D01*
X225472Y560815D01*
X229300Y559229D01*
X232229Y556300D01*
X233815Y552472D01*
X233815Y548328D01*
X232229Y544500D01*
X229300Y541571D01*
X225472Y539985D01*
X221328Y539985D01*
G37*
%LPD*%
%LPC*%
G36*
X195928Y539985D02*
X195928Y539985D01*
X192100Y541571D01*
X189171Y544500D01*
X187585Y548328D01*
X187585Y552472D01*
X189171Y556300D01*
X192100Y559229D01*
X195928Y560815D01*
X200072Y560815D01*
X203900Y559229D01*
X206829Y556300D01*
X208415Y552472D01*
X208415Y548328D01*
X206829Y544500D01*
X203900Y541571D01*
X200072Y539985D01*
X195928Y539985D01*
G37*
%LPD*%
%LPC*%
G36*
X145128Y539985D02*
X145128Y539985D01*
X141300Y541571D01*
X138371Y544500D01*
X136785Y548328D01*
X136785Y552472D01*
X138371Y556300D01*
X141300Y559229D01*
X145128Y560815D01*
X149272Y560815D01*
X153100Y559229D01*
X156029Y556300D01*
X157615Y552472D01*
X157615Y548328D01*
X156029Y544500D01*
X153100Y541571D01*
X149272Y539985D01*
X145128Y539985D01*
G37*
%LPD*%
%LPC*%
G36*
X424528Y514585D02*
X424528Y514585D01*
X420700Y516171D01*
X417771Y519100D01*
X416185Y522928D01*
X416185Y527072D01*
X417771Y530900D01*
X420700Y533829D01*
X424528Y535415D01*
X428672Y535415D01*
X432500Y533829D01*
X435429Y530900D01*
X437015Y527072D01*
X437015Y522928D01*
X435429Y519100D01*
X432500Y516171D01*
X428672Y514585D01*
X424528Y514585D01*
G37*
%LPD*%
%LPC*%
G36*
X551528Y539985D02*
X551528Y539985D01*
X547700Y541571D01*
X544771Y544500D01*
X543185Y548328D01*
X543185Y552472D01*
X544771Y556300D01*
X547700Y559229D01*
X551528Y560815D01*
X555672Y560815D01*
X559500Y559229D01*
X562429Y556300D01*
X564015Y552472D01*
X564015Y548328D01*
X562429Y544500D01*
X559500Y541571D01*
X555672Y539985D01*
X551528Y539985D01*
G37*
%LPD*%
%LPC*%
G36*
X145128Y514585D02*
X145128Y514585D01*
X141300Y516171D01*
X138371Y519100D01*
X136785Y522928D01*
X136785Y527072D01*
X138371Y530900D01*
X141300Y533829D01*
X145128Y535415D01*
X149272Y535415D01*
X153100Y533829D01*
X156029Y530900D01*
X157615Y527072D01*
X157615Y522928D01*
X156029Y519100D01*
X153100Y516171D01*
X149272Y514585D01*
X145128Y514585D01*
G37*
%LPD*%
%LPC*%
G36*
X170528Y514585D02*
X170528Y514585D01*
X166700Y516171D01*
X163771Y519100D01*
X162185Y522928D01*
X162185Y527072D01*
X163771Y530900D01*
X166700Y533829D01*
X170528Y535415D01*
X174672Y535415D01*
X178500Y533829D01*
X181429Y530900D01*
X183015Y527072D01*
X183015Y522928D01*
X181429Y519100D01*
X178500Y516171D01*
X174672Y514585D01*
X170528Y514585D01*
G37*
%LPD*%
%LPC*%
G36*
X195928Y514585D02*
X195928Y514585D01*
X192100Y516171D01*
X189171Y519100D01*
X187585Y522928D01*
X187585Y527072D01*
X189171Y530900D01*
X192100Y533829D01*
X195928Y535415D01*
X200072Y535415D01*
X203900Y533829D01*
X206829Y530900D01*
X208415Y527072D01*
X208415Y522928D01*
X206829Y519100D01*
X203900Y516171D01*
X200072Y514585D01*
X195928Y514585D01*
G37*
%LPD*%
%LPC*%
G36*
X221328Y514585D02*
X221328Y514585D01*
X217500Y516171D01*
X214571Y519100D01*
X212985Y522928D01*
X212985Y527072D01*
X214571Y530900D01*
X217500Y533829D01*
X221328Y535415D01*
X225472Y535415D01*
X229300Y533829D01*
X232229Y530900D01*
X233815Y527072D01*
X233815Y522928D01*
X232229Y519100D01*
X229300Y516171D01*
X225472Y514585D01*
X221328Y514585D01*
G37*
%LPD*%
%LPC*%
G36*
X246728Y514585D02*
X246728Y514585D01*
X242900Y516171D01*
X239971Y519100D01*
X238385Y522928D01*
X238385Y527072D01*
X239971Y530900D01*
X242900Y533829D01*
X246728Y535415D01*
X250872Y535415D01*
X254700Y533829D01*
X257629Y530900D01*
X259215Y527072D01*
X259215Y522928D01*
X257629Y519100D01*
X254700Y516171D01*
X250872Y514585D01*
X246728Y514585D01*
G37*
%LPD*%
%LPC*%
G36*
X272128Y514585D02*
X272128Y514585D01*
X268300Y516171D01*
X265371Y519100D01*
X263785Y522928D01*
X263785Y527072D01*
X265371Y530900D01*
X268300Y533829D01*
X272128Y535415D01*
X276272Y535415D01*
X280100Y533829D01*
X283029Y530900D01*
X284615Y527072D01*
X284615Y522928D01*
X283029Y519100D01*
X280100Y516171D01*
X276272Y514585D01*
X272128Y514585D01*
G37*
%LPD*%
%LPC*%
G36*
X322928Y514585D02*
X322928Y514585D01*
X319100Y516171D01*
X316171Y519100D01*
X314585Y522928D01*
X314585Y527072D01*
X316171Y530900D01*
X319100Y533829D01*
X322928Y535415D01*
X327072Y535415D01*
X330900Y533829D01*
X333829Y530900D01*
X335415Y527072D01*
X335415Y522928D01*
X333829Y519100D01*
X330900Y516171D01*
X327072Y514585D01*
X322928Y514585D01*
G37*
%LPD*%
%LPC*%
G36*
X449928Y514585D02*
X449928Y514585D01*
X446100Y516171D01*
X443171Y519100D01*
X441585Y522928D01*
X441585Y527072D01*
X443171Y530900D01*
X446100Y533829D01*
X449928Y535415D01*
X454072Y535415D01*
X457900Y533829D01*
X460829Y530900D01*
X462415Y527072D01*
X462415Y522928D01*
X460829Y519100D01*
X457900Y516171D01*
X454072Y514585D01*
X449928Y514585D01*
G37*
%LPD*%
%LPC*%
G36*
X348328Y514585D02*
X348328Y514585D01*
X344500Y516171D01*
X341571Y519100D01*
X339985Y522928D01*
X339985Y527072D01*
X341571Y530900D01*
X344500Y533829D01*
X348328Y535415D01*
X352472Y535415D01*
X356300Y533829D01*
X359229Y530900D01*
X360815Y527072D01*
X360815Y522928D01*
X359229Y519100D01*
X356300Y516171D01*
X352472Y514585D01*
X348328Y514585D01*
G37*
%LPD*%
%LPC*%
G36*
X373728Y514585D02*
X373728Y514585D01*
X369900Y516171D01*
X366971Y519100D01*
X365385Y522928D01*
X365385Y527072D01*
X366971Y530900D01*
X369900Y533829D01*
X373728Y535415D01*
X377872Y535415D01*
X381700Y533829D01*
X384629Y530900D01*
X386215Y527072D01*
X386215Y522928D01*
X384629Y519100D01*
X381700Y516171D01*
X377872Y514585D01*
X373728Y514585D01*
G37*
%LPD*%
%LPC*%
G36*
X399128Y514585D02*
X399128Y514585D01*
X395300Y516171D01*
X392371Y519100D01*
X390785Y522928D01*
X390785Y527072D01*
X392371Y530900D01*
X395300Y533829D01*
X399128Y535415D01*
X403272Y535415D01*
X407100Y533829D01*
X410029Y530900D01*
X411615Y527072D01*
X411615Y522928D01*
X410029Y519100D01*
X407100Y516171D01*
X403272Y514585D01*
X399128Y514585D01*
G37*
%LPD*%
%LPC*%
G36*
X475328Y514585D02*
X475328Y514585D01*
X471500Y516171D01*
X468571Y519100D01*
X466985Y522928D01*
X466985Y527072D01*
X468571Y530900D01*
X471500Y533829D01*
X475328Y535415D01*
X479472Y535415D01*
X483300Y533829D01*
X486229Y530900D01*
X487815Y527072D01*
X487815Y522928D01*
X486229Y519100D01*
X483300Y516171D01*
X479472Y514585D01*
X475328Y514585D01*
G37*
%LPD*%
%LPC*%
G36*
X500728Y514585D02*
X500728Y514585D01*
X496900Y516171D01*
X493971Y519100D01*
X492385Y522928D01*
X492385Y527072D01*
X493971Y530900D01*
X496900Y533829D01*
X500728Y535415D01*
X504872Y535415D01*
X508700Y533829D01*
X511629Y530900D01*
X513215Y527072D01*
X513215Y522928D01*
X511629Y519100D01*
X508700Y516171D01*
X504872Y514585D01*
X500728Y514585D01*
G37*
%LPD*%
%LPC*%
G36*
X526128Y514585D02*
X526128Y514585D01*
X522300Y516171D01*
X519371Y519100D01*
X517785Y522928D01*
X517785Y527072D01*
X519371Y530900D01*
X522300Y533829D01*
X526128Y535415D01*
X530272Y535415D01*
X534100Y533829D01*
X537029Y530900D01*
X538615Y527072D01*
X538615Y522928D01*
X537029Y519100D01*
X534100Y516171D01*
X530272Y514585D01*
X526128Y514585D01*
G37*
%LPD*%
%LPC*%
G36*
X551528Y514585D02*
X551528Y514585D01*
X547700Y516171D01*
X544771Y519100D01*
X543185Y522928D01*
X543185Y527072D01*
X544771Y530900D01*
X547700Y533829D01*
X551528Y535415D01*
X555672Y535415D01*
X559500Y533829D01*
X562429Y530900D01*
X564015Y527072D01*
X564015Y522928D01*
X562429Y519100D01*
X559500Y516171D01*
X555672Y514585D01*
X551528Y514585D01*
G37*
%LPD*%
%LPC*%
G36*
X576928Y514585D02*
X576928Y514585D01*
X573100Y516171D01*
X570171Y519100D01*
X568585Y522928D01*
X568585Y527072D01*
X570171Y530900D01*
X573100Y533829D01*
X576928Y535415D01*
X581072Y535415D01*
X584900Y533829D01*
X587829Y530900D01*
X589415Y527072D01*
X589415Y522928D01*
X587829Y519100D01*
X584900Y516171D01*
X581072Y514585D01*
X576928Y514585D01*
G37*
%LPD*%
%LPC*%
G36*
X602328Y514585D02*
X602328Y514585D01*
X598500Y516171D01*
X595571Y519100D01*
X593985Y522928D01*
X593985Y527072D01*
X595571Y530900D01*
X598500Y533829D01*
X602328Y535415D01*
X606472Y535415D01*
X610300Y533829D01*
X613229Y530900D01*
X614815Y527072D01*
X614815Y522928D01*
X613229Y519100D01*
X610300Y516171D01*
X606472Y514585D01*
X602328Y514585D01*
G37*
%LPD*%
%LPC*%
G36*
X526128Y539985D02*
X526128Y539985D01*
X522300Y541571D01*
X519371Y544500D01*
X517785Y548328D01*
X517785Y552472D01*
X519371Y556300D01*
X522300Y559229D01*
X526128Y560815D01*
X530272Y560815D01*
X534100Y559229D01*
X537029Y556300D01*
X538615Y552472D01*
X538615Y548328D01*
X537029Y544500D01*
X534100Y541571D01*
X530272Y539985D01*
X526128Y539985D01*
G37*
%LPD*%
%LPC*%
G36*
X297528Y514585D02*
X297528Y514585D01*
X293700Y516171D01*
X290771Y519100D01*
X289185Y522928D01*
X289185Y527072D01*
X290771Y530900D01*
X293700Y533829D01*
X297528Y535415D01*
X301672Y535415D01*
X305500Y533829D01*
X308429Y530900D01*
X310015Y527072D01*
X310015Y522928D01*
X308429Y519100D01*
X305500Y516171D01*
X301672Y514585D01*
X297528Y514585D01*
G37*
%LPD*%
%LPC*%
G36*
X500728Y539985D02*
X500728Y539985D01*
X496900Y541571D01*
X493971Y544500D01*
X492385Y548328D01*
X492385Y552472D01*
X493971Y556300D01*
X496900Y559229D01*
X500728Y560815D01*
X504872Y560815D01*
X508700Y559229D01*
X511629Y556300D01*
X513215Y552472D01*
X513215Y548328D01*
X511629Y544500D01*
X508700Y541571D01*
X504872Y539985D01*
X500728Y539985D01*
G37*
%LPD*%
%LPC*%
G36*
X475328Y539985D02*
X475328Y539985D01*
X471500Y541571D01*
X468571Y544500D01*
X466985Y548328D01*
X466985Y552472D01*
X468571Y556300D01*
X471500Y559229D01*
X475328Y560815D01*
X479472Y560815D01*
X483300Y559229D01*
X486229Y556300D01*
X487815Y552472D01*
X487815Y548328D01*
X486229Y544500D01*
X483300Y541571D01*
X479472Y539985D01*
X475328Y539985D01*
G37*
%LPD*%
%LPC*%
G36*
X449928Y539985D02*
X449928Y539985D01*
X446100Y541571D01*
X443171Y544500D01*
X441585Y548328D01*
X441585Y552472D01*
X443171Y556300D01*
X446100Y559229D01*
X449928Y560815D01*
X454072Y560815D01*
X457900Y559229D01*
X460829Y556300D01*
X462415Y552472D01*
X462415Y548328D01*
X460829Y544500D01*
X457900Y541571D01*
X454072Y539985D01*
X449928Y539985D01*
G37*
%LPD*%
%LPC*%
G36*
X119728Y539985D02*
X119728Y539985D01*
X115900Y541571D01*
X112971Y544500D01*
X111385Y548328D01*
X111385Y552472D01*
X112971Y556300D01*
X115900Y559229D01*
X119728Y560815D01*
X123872Y560815D01*
X127700Y559229D01*
X130629Y556300D01*
X132215Y552472D01*
X132215Y548328D01*
X130629Y544500D01*
X127700Y541571D01*
X123872Y539985D01*
X119728Y539985D01*
G37*
%LPD*%
%LPC*%
G36*
X424528Y539985D02*
X424528Y539985D01*
X420700Y541571D01*
X417771Y544500D01*
X416185Y548328D01*
X416185Y552472D01*
X417771Y556300D01*
X420700Y559229D01*
X424528Y560815D01*
X428672Y560815D01*
X432500Y559229D01*
X435429Y556300D01*
X437015Y552472D01*
X437015Y548328D01*
X435429Y544500D01*
X432500Y541571D01*
X428672Y539985D01*
X424528Y539985D01*
G37*
%LPD*%
%LPC*%
G36*
X246728Y539985D02*
X246728Y539985D01*
X242900Y541571D01*
X239971Y544500D01*
X238385Y548328D01*
X238385Y552472D01*
X239971Y556300D01*
X242900Y559229D01*
X246728Y560815D01*
X250872Y560815D01*
X254700Y559229D01*
X257629Y556300D01*
X259215Y552472D01*
X259215Y548328D01*
X257629Y544500D01*
X254700Y541571D01*
X250872Y539985D01*
X246728Y539985D01*
G37*
%LPD*%
%LPC*%
G36*
X399128Y539985D02*
X399128Y539985D01*
X395300Y541571D01*
X392371Y544500D01*
X390785Y548328D01*
X390785Y552472D01*
X392371Y556300D01*
X395300Y559229D01*
X399128Y560815D01*
X403272Y560815D01*
X407100Y559229D01*
X410029Y556300D01*
X411615Y552472D01*
X411615Y548328D01*
X410029Y544500D01*
X407100Y541571D01*
X403272Y539985D01*
X399128Y539985D01*
G37*
%LPD*%
%LPC*%
G36*
X272128Y539985D02*
X272128Y539985D01*
X268300Y541571D01*
X265371Y544500D01*
X263785Y548328D01*
X263785Y552472D01*
X265371Y556300D01*
X268300Y559229D01*
X272128Y560815D01*
X276272Y560815D01*
X280100Y559229D01*
X283029Y556300D01*
X284615Y552472D01*
X284615Y548328D01*
X283029Y544500D01*
X280100Y541571D01*
X276272Y539985D01*
X272128Y539985D01*
G37*
%LPD*%
%LPC*%
G36*
X297528Y539985D02*
X297528Y539985D01*
X293700Y541571D01*
X290771Y544500D01*
X289185Y548328D01*
X289185Y552472D01*
X290771Y556300D01*
X293700Y559229D01*
X297528Y560815D01*
X301672Y560815D01*
X305500Y559229D01*
X308429Y556300D01*
X310015Y552472D01*
X310015Y548328D01*
X308429Y544500D01*
X305500Y541571D01*
X301672Y539985D01*
X297528Y539985D01*
G37*
%LPD*%
%LPC*%
G36*
X373728Y539985D02*
X373728Y539985D01*
X369900Y541571D01*
X366971Y544500D01*
X365385Y548328D01*
X365385Y552472D01*
X366971Y556300D01*
X369900Y559229D01*
X373728Y560815D01*
X377872Y560815D01*
X381700Y559229D01*
X384629Y556300D01*
X386215Y552472D01*
X386215Y548328D01*
X384629Y544500D01*
X381700Y541571D01*
X377872Y539985D01*
X373728Y539985D01*
G37*
%LPD*%
%LPC*%
G36*
X322928Y539985D02*
X322928Y539985D01*
X319100Y541571D01*
X316171Y544500D01*
X314585Y548328D01*
X314585Y552472D01*
X316171Y556300D01*
X319100Y559229D01*
X322928Y560815D01*
X327072Y560815D01*
X330900Y559229D01*
X333829Y556300D01*
X335415Y552472D01*
X335415Y548328D01*
X333829Y544500D01*
X330900Y541571D01*
X327072Y539985D01*
X322928Y539985D01*
G37*
%LPD*%
%LPC*%
G36*
X348328Y539985D02*
X348328Y539985D01*
X344500Y541571D01*
X341571Y544500D01*
X339985Y548328D01*
X339985Y552472D01*
X341571Y556300D01*
X344500Y559229D01*
X348328Y560815D01*
X352472Y560815D01*
X356300Y559229D01*
X359229Y556300D01*
X360815Y552472D01*
X360815Y548328D01*
X359229Y544500D01*
X356300Y541571D01*
X352472Y539985D01*
X348328Y539985D01*
G37*
%LPD*%
%LPC*%
G36*
X467702Y324893D02*
X467702Y324893D01*
X464593Y328002D01*
X464593Y332398D01*
X467702Y335507D01*
X471657Y335507D01*
X471748Y335521D01*
X471838Y335529D01*
X471868Y335541D01*
X471900Y335546D01*
X471981Y335589D01*
X472065Y335625D01*
X472097Y335651D01*
X472118Y335662D01*
X472140Y335685D01*
X472196Y335730D01*
X479649Y343183D01*
X502467Y343183D01*
X502557Y343197D01*
X502648Y343205D01*
X502677Y343217D01*
X502709Y343222D01*
X502790Y343265D01*
X502874Y343301D01*
X502906Y343327D01*
X502927Y343338D01*
X502949Y343361D01*
X503005Y343406D01*
X505802Y346203D01*
X510198Y346203D01*
X513307Y343094D01*
X513307Y338698D01*
X510198Y335589D01*
X505802Y335589D01*
X503005Y338386D01*
X502931Y338439D01*
X502861Y338499D01*
X502831Y338511D01*
X502805Y338530D01*
X502718Y338557D01*
X502633Y338591D01*
X502592Y338595D01*
X502570Y338602D01*
X502538Y338601D01*
X502467Y338609D01*
X481859Y338609D01*
X481768Y338595D01*
X481678Y338587D01*
X481648Y338575D01*
X481616Y338570D01*
X481535Y338527D01*
X481451Y338491D01*
X481419Y338465D01*
X481398Y338454D01*
X481376Y338431D01*
X481320Y338386D01*
X475430Y332496D01*
X475377Y332422D01*
X475317Y332352D01*
X475305Y332322D01*
X475286Y332296D01*
X475259Y332209D01*
X475225Y332124D01*
X475221Y332083D01*
X475214Y332061D01*
X475215Y332029D01*
X475207Y331957D01*
X475207Y328002D01*
X472098Y324893D01*
X467702Y324893D01*
G37*
%LPD*%
%LPC*%
G36*
X84294Y394611D02*
X84294Y394611D01*
X81186Y397719D01*
X81186Y402116D01*
X84294Y405224D01*
X87172Y405224D01*
X87262Y405239D01*
X87353Y405246D01*
X87383Y405259D01*
X87415Y405264D01*
X87496Y405307D01*
X87580Y405342D01*
X87612Y405368D01*
X87632Y405379D01*
X87655Y405403D01*
X87658Y405404D01*
X87660Y405407D01*
X87711Y405447D01*
X91712Y409449D01*
X108232Y409449D01*
X108252Y409452D01*
X108271Y409450D01*
X108373Y409472D01*
X108475Y409488D01*
X108492Y409498D01*
X108512Y409502D01*
X108601Y409555D01*
X108692Y409604D01*
X108706Y409618D01*
X108723Y409628D01*
X108790Y409707D01*
X108862Y409782D01*
X108870Y409800D01*
X108883Y409815D01*
X108922Y409911D01*
X108965Y410005D01*
X108967Y410025D01*
X108975Y410043D01*
X108993Y410210D01*
X108993Y412408D01*
X112102Y415517D01*
X116498Y415517D01*
X119607Y412408D01*
X119607Y408012D01*
X117572Y405977D01*
X117519Y405903D01*
X117459Y405833D01*
X117447Y405803D01*
X117428Y405777D01*
X117401Y405690D01*
X117367Y405605D01*
X117363Y405564D01*
X117356Y405542D01*
X117357Y405510D01*
X117349Y405439D01*
X117349Y405137D01*
X115563Y403351D01*
X94553Y403351D01*
X94463Y403337D01*
X94372Y403329D01*
X94342Y403317D01*
X94310Y403312D01*
X94230Y403269D01*
X94146Y403233D01*
X94114Y403207D01*
X94093Y403196D01*
X94071Y403173D01*
X94015Y403128D01*
X92022Y401136D01*
X91969Y401062D01*
X91910Y400992D01*
X91897Y400962D01*
X91879Y400936D01*
X91852Y400849D01*
X91818Y400764D01*
X91813Y400723D01*
X91806Y400701D01*
X91807Y400669D01*
X91799Y400597D01*
X91799Y397719D01*
X88691Y394611D01*
X84294Y394611D01*
G37*
%LPD*%
%LPC*%
G36*
X620380Y244347D02*
X620380Y244347D01*
X616832Y245817D01*
X614117Y248532D01*
X612647Y252080D01*
X612647Y255920D01*
X614117Y259468D01*
X616832Y262183D01*
X620380Y263653D01*
X624220Y263653D01*
X627768Y262183D01*
X630483Y259468D01*
X631953Y255920D01*
X631953Y252080D01*
X630483Y248532D01*
X627768Y245817D01*
X624220Y244347D01*
X620380Y244347D01*
G37*
%LPD*%
%LPC*%
G36*
X86980Y231647D02*
X86980Y231647D01*
X83432Y233117D01*
X80717Y235832D01*
X79247Y239380D01*
X79247Y243220D01*
X80717Y246768D01*
X83432Y249483D01*
X86980Y250953D01*
X90820Y250953D01*
X94368Y249483D01*
X97083Y246768D01*
X98553Y243220D01*
X98553Y239380D01*
X97083Y235832D01*
X94368Y233117D01*
X90820Y231647D01*
X86980Y231647D01*
G37*
%LPD*%
%LPC*%
G36*
X655319Y298068D02*
X655319Y298068D01*
X655319Y314919D01*
X657397Y314646D01*
X659728Y314021D01*
X661959Y313097D01*
X664049Y311890D01*
X665964Y310420D01*
X667671Y308713D01*
X669141Y306798D01*
X670348Y304708D01*
X671272Y302477D01*
X671897Y300145D01*
X672170Y298068D01*
X655319Y298068D01*
G37*
%LPD*%
%LPC*%
G36*
X655319Y212978D02*
X655319Y212978D01*
X655319Y229829D01*
X657397Y229556D01*
X659728Y228931D01*
X661959Y228007D01*
X664049Y226800D01*
X665964Y225330D01*
X667671Y223623D01*
X669141Y221708D01*
X670348Y219618D01*
X671272Y217387D01*
X671897Y215056D01*
X672170Y212978D01*
X655319Y212978D01*
G37*
%LPD*%
%LPC*%
G36*
X655319Y295022D02*
X655319Y295022D01*
X672170Y295022D01*
X671897Y292944D01*
X671272Y290613D01*
X670348Y288382D01*
X669141Y286292D01*
X667671Y284377D01*
X665964Y282670D01*
X664049Y281200D01*
X661959Y279993D01*
X659728Y279069D01*
X657397Y278444D01*
X655319Y278171D01*
X655319Y295022D01*
G37*
%LPD*%
%LPC*%
G36*
X39030Y200278D02*
X39030Y200278D01*
X39303Y202356D01*
X39928Y204687D01*
X40852Y206918D01*
X42059Y209008D01*
X43529Y210923D01*
X45236Y212630D01*
X47151Y214100D01*
X49241Y215307D01*
X51472Y216231D01*
X53803Y216856D01*
X55881Y217129D01*
X55881Y200278D01*
X39030Y200278D01*
G37*
%LPD*%
%LPC*%
G36*
X39030Y285368D02*
X39030Y285368D01*
X39303Y287446D01*
X39928Y289777D01*
X40852Y292008D01*
X42059Y294098D01*
X43529Y296013D01*
X45236Y297720D01*
X47151Y299190D01*
X49241Y300397D01*
X51472Y301321D01*
X53803Y301946D01*
X55881Y302219D01*
X55881Y285368D01*
X39030Y285368D01*
G37*
%LPD*%
%LPC*%
G36*
X53803Y265744D02*
X53803Y265744D01*
X51472Y266369D01*
X49241Y267293D01*
X47151Y268500D01*
X45236Y269970D01*
X43529Y271677D01*
X42059Y273592D01*
X40852Y275682D01*
X39928Y277913D01*
X39303Y280244D01*
X39030Y282322D01*
X55881Y282322D01*
X55881Y265471D01*
X53803Y265744D01*
G37*
%LPD*%
%LPC*%
G36*
X53803Y180654D02*
X53803Y180654D01*
X51472Y181279D01*
X49241Y182203D01*
X47151Y183410D01*
X45236Y184880D01*
X43529Y186587D01*
X42059Y188502D01*
X40852Y190592D01*
X39928Y192823D01*
X39303Y195154D01*
X39030Y197232D01*
X55881Y197232D01*
X55881Y180381D01*
X53803Y180654D01*
G37*
%LPD*%
%LPC*%
G36*
X90423Y285368D02*
X90423Y285368D01*
X90423Y299034D01*
X92469Y298710D01*
X94750Y297969D01*
X96888Y296880D01*
X98829Y295470D01*
X100525Y293774D01*
X101935Y291833D01*
X103024Y289695D01*
X103765Y287414D01*
X104089Y285368D01*
X90423Y285368D01*
G37*
%LPD*%
%LPC*%
G36*
X90423Y200278D02*
X90423Y200278D01*
X90423Y213944D01*
X92469Y213620D01*
X94750Y212879D01*
X96888Y211790D01*
X98829Y210380D01*
X100525Y208684D01*
X101935Y206743D01*
X103024Y204605D01*
X103765Y202324D01*
X104089Y200278D01*
X90423Y200278D01*
G37*
%LPD*%
%LPC*%
G36*
X607111Y298068D02*
X607111Y298068D01*
X607435Y300114D01*
X608176Y302395D01*
X609265Y304533D01*
X610675Y306474D01*
X612371Y308170D01*
X614312Y309580D01*
X616450Y310669D01*
X618731Y311410D01*
X620777Y311734D01*
X620777Y298068D01*
X607111Y298068D01*
G37*
%LPD*%
%LPC*%
G36*
X607111Y212978D02*
X607111Y212978D01*
X607435Y215024D01*
X608176Y217305D01*
X609265Y219443D01*
X610675Y221384D01*
X612371Y223080D01*
X614312Y224490D01*
X616450Y225579D01*
X618731Y226320D01*
X620777Y226644D01*
X620777Y212978D01*
X607111Y212978D01*
G37*
%LPD*%
%LPC*%
G36*
X90423Y282322D02*
X90423Y282322D01*
X104089Y282322D01*
X103765Y280276D01*
X103024Y277995D01*
X101935Y275857D01*
X100525Y273916D01*
X98829Y272220D01*
X96888Y270810D01*
X94750Y269721D01*
X92469Y268980D01*
X90423Y268656D01*
X90423Y282322D01*
G37*
%LPD*%
%LPC*%
G36*
X90423Y197232D02*
X90423Y197232D01*
X104089Y197232D01*
X103765Y195186D01*
X103024Y192905D01*
X101935Y190767D01*
X100525Y188826D01*
X98829Y187130D01*
X96888Y185720D01*
X94750Y184631D01*
X92469Y183890D01*
X90423Y183566D01*
X90423Y197232D01*
G37*
%LPD*%
%LPC*%
G36*
X618731Y281680D02*
X618731Y281680D01*
X616450Y282421D01*
X614312Y283510D01*
X612371Y284920D01*
X610675Y286616D01*
X609265Y288557D01*
X608176Y290695D01*
X607435Y292976D01*
X607111Y295022D01*
X620777Y295022D01*
X620777Y281356D01*
X618731Y281680D01*
G37*
%LPD*%
%LPC*%
G36*
X618731Y196590D02*
X618731Y196590D01*
X616450Y197331D01*
X614312Y198420D01*
X612371Y199830D01*
X610675Y201526D01*
X609265Y203467D01*
X608176Y205605D01*
X607435Y207886D01*
X607111Y209932D01*
X620777Y209932D01*
X620777Y196266D01*
X618731Y196590D01*
G37*
%LPD*%
%LPC*%
G36*
X174123Y551923D02*
X174123Y551923D01*
X174123Y561732D01*
X175277Y561549D01*
X176988Y560993D01*
X178591Y560176D01*
X180047Y559119D01*
X181319Y557847D01*
X182376Y556391D01*
X183193Y554788D01*
X183749Y553077D01*
X183932Y551923D01*
X174123Y551923D01*
G37*
%LPD*%
%LPC*%
G36*
X161268Y551923D02*
X161268Y551923D01*
X161451Y553077D01*
X162007Y554788D01*
X162824Y556391D01*
X163881Y557847D01*
X165153Y559119D01*
X166609Y560176D01*
X168212Y560993D01*
X169923Y561549D01*
X171077Y561732D01*
X171077Y551923D01*
X161268Y551923D01*
G37*
%LPD*%
%LPC*%
G36*
X174123Y548877D02*
X174123Y548877D01*
X183932Y548877D01*
X183749Y547723D01*
X183193Y546012D01*
X182376Y544409D01*
X181319Y542953D01*
X180047Y541681D01*
X178591Y540624D01*
X176988Y539807D01*
X175277Y539251D01*
X174123Y539068D01*
X174123Y548877D01*
G37*
%LPD*%
%LPC*%
G36*
X169923Y539251D02*
X169923Y539251D01*
X168212Y539807D01*
X166609Y540624D01*
X165153Y541681D01*
X163881Y542953D01*
X162824Y544409D01*
X162007Y546012D01*
X161451Y547723D01*
X161268Y548877D01*
X171077Y548877D01*
X171077Y539068D01*
X169923Y539251D01*
G37*
%LPD*%
%LPC*%
G36*
X88899Y198754D02*
X88899Y198754D01*
X88899Y198756D01*
X88901Y198756D01*
X88901Y198754D01*
X88899Y198754D01*
G37*
%LPD*%
%LPC*%
G36*
X57403Y198754D02*
X57403Y198754D01*
X57403Y198756D01*
X57405Y198756D01*
X57405Y198754D01*
X57403Y198754D01*
G37*
%LPD*%
%LPC*%
G36*
X57403Y283844D02*
X57403Y283844D01*
X57403Y283846D01*
X57405Y283846D01*
X57405Y283844D01*
X57403Y283844D01*
G37*
%LPD*%
%LPC*%
G36*
X88899Y283844D02*
X88899Y283844D01*
X88899Y283846D01*
X88901Y283846D01*
X88901Y283844D01*
X88899Y283844D01*
G37*
%LPD*%
%LPC*%
G36*
X622299Y211454D02*
X622299Y211454D01*
X622299Y211456D01*
X622301Y211456D01*
X622301Y211454D01*
X622299Y211454D01*
G37*
%LPD*%
%LPC*%
G36*
X653795Y211454D02*
X653795Y211454D01*
X653795Y211456D01*
X653797Y211456D01*
X653797Y211454D01*
X653795Y211454D01*
G37*
%LPD*%
%LPC*%
G36*
X172599Y550399D02*
X172599Y550399D01*
X172599Y550401D01*
X172601Y550401D01*
X172601Y550399D01*
X172599Y550399D01*
G37*
%LPD*%
%LPC*%
G36*
X653795Y296544D02*
X653795Y296544D01*
X653795Y296546D01*
X653797Y296546D01*
X653797Y296544D01*
X653795Y296544D01*
G37*
%LPD*%
%LPC*%
G36*
X622299Y296544D02*
X622299Y296544D01*
X622299Y296546D01*
X622301Y296546D01*
X622301Y296544D01*
X622299Y296544D01*
G37*
%LPD*%
D10*
X121800Y525000D03*
D11*
X121800Y550400D03*
X147200Y525000D03*
X147200Y550400D03*
X172600Y525000D03*
X172600Y550400D03*
X198000Y525000D03*
X198000Y550400D03*
X223400Y525000D03*
X223400Y550400D03*
X248800Y525000D03*
X248800Y550400D03*
X274200Y525000D03*
X274200Y550400D03*
X299600Y525000D03*
X299600Y550400D03*
X325000Y525000D03*
X325000Y550400D03*
X350400Y525000D03*
X350400Y550400D03*
X375800Y525000D03*
X375800Y550400D03*
X401200Y525000D03*
X401200Y550400D03*
X426600Y525000D03*
X426600Y550400D03*
X452000Y525000D03*
X452000Y550400D03*
X477400Y525000D03*
X477400Y550400D03*
X502800Y525000D03*
X502800Y550400D03*
X528200Y525000D03*
X528200Y550400D03*
X553600Y525000D03*
X553600Y550400D03*
X579000Y525000D03*
X579000Y550400D03*
X604400Y525000D03*
X604400Y550400D03*
D12*
X73100Y47700D03*
X653100Y47700D03*
X653100Y537700D03*
X73100Y537700D03*
D13*
X622300Y254000D03*
D14*
X622300Y211455D03*
X622300Y296545D03*
D15*
X653796Y211455D03*
X653796Y296545D03*
D13*
X88900Y241300D03*
D14*
X88900Y283845D03*
X88900Y198755D03*
D15*
X57404Y283845D03*
X57404Y198755D03*
D16*
X267970Y210820D03*
X267970Y195580D03*
X281940Y195580D03*
X294640Y195580D03*
X307340Y195580D03*
X320040Y195580D03*
X332740Y195580D03*
X345440Y195580D03*
X358140Y195580D03*
X236220Y195580D03*
X210820Y195580D03*
X236220Y210820D03*
X186690Y198120D03*
X198120Y182880D03*
X210820Y170180D03*
X223520Y181610D03*
X222250Y162560D03*
X232410Y173990D03*
X233680Y158750D03*
X261620Y158750D03*
X261620Y173990D03*
X274320Y158750D03*
X274320Y173990D03*
X287020Y173990D03*
X299720Y173990D03*
X312420Y173990D03*
X287020Y158750D03*
X299720Y158750D03*
X312420Y158750D03*
X364490Y165100D03*
X342900Y176530D03*
X330200Y115570D03*
X345440Y132080D03*
X391160Y137160D03*
X369570Y93980D03*
X394970Y93980D03*
X327660Y81280D03*
X279400Y113030D03*
X261620Y129540D03*
X280670Y210820D03*
X293370Y210820D03*
X306070Y210820D03*
X318770Y210820D03*
X331470Y210820D03*
X344170Y210820D03*
X356870Y210820D03*
X367030Y210820D03*
X367030Y195580D03*
X384810Y195580D03*
X384810Y210820D03*
X397510Y195580D03*
X410210Y195580D03*
X397510Y210820D03*
X410210Y210820D03*
X422910Y210820D03*
X427990Y186690D03*
X438150Y196850D03*
X411480Y171450D03*
X396240Y180340D03*
X417830Y146050D03*
X427990Y156210D03*
X436880Y165100D03*
X422910Y176530D03*
X455930Y185420D03*
X455930Y201930D03*
X471170Y201930D03*
X483870Y204470D03*
X494030Y212090D03*
X469900Y185420D03*
X485140Y185420D03*
X496570Y191770D03*
X505460Y200660D03*
X514350Y209550D03*
X505460Y172720D03*
X477520Y147320D03*
X490220Y147320D03*
X466090Y175260D03*
X519430Y187960D03*
X530860Y187960D03*
X547370Y187960D03*
X547370Y198120D03*
X530860Y198120D03*
X529590Y208280D03*
X547370Y209550D03*
X537210Y147320D03*
X537210Y137160D03*
X539750Y125730D03*
X505460Y101600D03*
X518160Y95250D03*
X566420Y133350D03*
X579120Y152400D03*
X608330Y245110D03*
X604520Y261620D03*
X591820Y261620D03*
X580390Y261620D03*
X568960Y256540D03*
X560070Y247650D03*
X551180Y240030D03*
X560070Y223520D03*
X568960Y232410D03*
X576580Y240030D03*
X586740Y245110D03*
X598170Y245110D03*
X621030Y240030D03*
X632460Y242570D03*
X638810Y252730D03*
X635000Y264160D03*
X624840Y269240D03*
X613410Y267970D03*
X548640Y295910D03*
X528320Y298450D03*
X537210Y309880D03*
X561340Y298450D03*
X576580Y298450D03*
X589280Y307340D03*
X577850Y339090D03*
X598170Y349250D03*
X585470Y391160D03*
X554990Y396240D03*
X553720Y372110D03*
X541020Y330200D03*
X519430Y330200D03*
X533400Y353060D03*
X463550Y365760D03*
X543560Y397510D03*
X533400Y397510D03*
X520700Y397510D03*
X499110Y397510D03*
X510540Y397510D03*
X487680Y397510D03*
X473710Y397510D03*
X453390Y397510D03*
X551180Y414020D03*
X534670Y414020D03*
X521970Y414020D03*
X510540Y414020D03*
X499110Y414020D03*
X487680Y414020D03*
X473710Y414020D03*
X463550Y397510D03*
X463550Y414020D03*
X453390Y414020D03*
X431800Y397510D03*
X431800Y414020D03*
X419100Y414020D03*
X419100Y397510D03*
X406400Y414020D03*
X393700Y414020D03*
X381000Y414020D03*
X368300Y414020D03*
X355600Y414020D03*
X342900Y414020D03*
X406400Y397510D03*
X393700Y397510D03*
X381000Y397510D03*
X368300Y397510D03*
X355600Y397510D03*
X345440Y397510D03*
X337820Y388620D03*
X331470Y407670D03*
X321310Y397510D03*
X312420Y387350D03*
X299720Y378460D03*
X293370Y368300D03*
X285750Y360680D03*
X271780Y346710D03*
X331470Y382270D03*
X325120Y375920D03*
X318770Y369570D03*
X312420Y363220D03*
X306070Y356870D03*
X299720Y350520D03*
X293370Y344170D03*
X287020Y337820D03*
X273050Y326390D03*
X265430Y339090D03*
X266700Y320040D03*
X237490Y298450D03*
X236220Y321310D03*
X228600Y313690D03*
X222250Y307340D03*
X215900Y300990D03*
X209550Y294640D03*
X203200Y288290D03*
X231140Y292100D03*
X224790Y285750D03*
X336550Y335280D03*
X347980Y337820D03*
X360680Y337820D03*
X373380Y337820D03*
X403860Y312420D03*
X387350Y311150D03*
X381000Y298450D03*
X370840Y295910D03*
X354330Y299720D03*
X345440Y313690D03*
X327660Y326390D03*
X369570Y379730D03*
X322580Y358140D03*
X401320Y379730D03*
X321310Y340360D03*
X312420Y332740D03*
X303530Y322580D03*
X295910Y314960D03*
X285750Y307340D03*
X266700Y309880D03*
X273050Y294640D03*
X260350Y280670D03*
X237490Y259080D03*
X229870Y250190D03*
X217170Y248920D03*
X204470Y248920D03*
X191770Y248920D03*
X179070Y248920D03*
X166370Y248920D03*
X153670Y248920D03*
X140970Y248920D03*
X128270Y248920D03*
X115570Y248920D03*
X104140Y248920D03*
X95250Y256540D03*
X83820Y256540D03*
X73660Y247650D03*
X73660Y234950D03*
X82550Y227330D03*
X95250Y227330D03*
X105410Y233680D03*
X116840Y233680D03*
X129540Y233680D03*
X142240Y233680D03*
X154940Y233680D03*
X167640Y233680D03*
X180340Y233680D03*
X193040Y233680D03*
X205740Y233680D03*
X222250Y238760D03*
X231140Y229870D03*
X515620Y299720D03*
X509270Y306070D03*
X496570Y309880D03*
X483870Y309880D03*
X471170Y309880D03*
X458470Y309880D03*
X445770Y309880D03*
X433070Y309880D03*
X420370Y309880D03*
X483870Y290830D03*
X471170Y290830D03*
X458470Y290830D03*
X445770Y290830D03*
X433070Y290830D03*
X420370Y290830D03*
X410210Y285750D03*
X398780Y271780D03*
X415290Y132080D03*
X415290Y119380D03*
X415290Y106680D03*
X408940Y96520D03*
X127000Y138430D03*
X184150Y138430D03*
X127000Y30480D03*
X184150Y30480D03*
X241300Y30480D03*
X298450Y30480D03*
X361950Y30480D03*
X425450Y26670D03*
X490220Y27940D03*
X538480Y20320D03*
X590550Y30480D03*
X596900Y74930D03*
X641350Y119380D03*
X476250Y443230D03*
X527050Y443230D03*
X571500Y443230D03*
X603250Y487680D03*
X641350Y462280D03*
X660400Y430530D03*
X203200Y339090D03*
X165100Y339090D03*
X31750Y370840D03*
X44450Y326390D03*
X95250Y313690D03*
X156210Y426720D03*
X95250Y441960D03*
X201930Y452120D03*
X393700Y443230D03*
X393700Y474980D03*
X311150Y474980D03*
X298450Y449580D03*
X247650Y500380D03*
X260350Y411480D03*
X254000Y430530D03*
X203200Y379730D03*
X500380Y252730D03*
X481330Y259080D03*
X474980Y271780D03*
X436880Y259080D03*
X417830Y240030D03*
X341630Y227330D03*
X278130Y227330D03*
X278130Y252730D03*
X241300Y81280D03*
X184150Y81280D03*
X406400Y347980D03*
X111760Y430530D03*
X151130Y297180D03*
X105410Y499110D03*
X54610Y494030D03*
X67310Y494030D03*
D17*
X337590Y155090D03*
X566420Y123190D03*
D18*
X557530Y114300D01*
X495300Y114300D01*
X491490Y110490D01*
X491490Y107950D01*
D17*
X491490Y107950D03*
X345764Y111436D03*
D18*
X342900Y114300D01*
X337590Y119610D01*
X337590Y155090D01*
X342900Y114300D02*
X342900Y76200D01*
X355600Y63500D01*
X469900Y63500D01*
X491490Y85090D01*
X491490Y107950D01*
X355600Y63500D02*
X351790Y59690D01*
X345440Y59690D01*
D17*
X345440Y59690D03*
X346710Y284558D03*
D18*
X330200Y301068D01*
X330200Y302260D01*
D17*
X330200Y302260D03*
X496570Y361950D03*
D18*
X565150Y361950D01*
D17*
X574040Y353060D03*
D18*
X565150Y361950D01*
X666750Y361950D01*
X685800Y342900D01*
X594071Y159230D02*
X590070Y155229D01*
X590070Y146840D02*
X566420Y123190D01*
X590070Y146840D02*
X590070Y155229D01*
X685800Y216698D02*
X685800Y342900D01*
X685800Y216698D02*
X628332Y159230D01*
X594071Y159230D01*
X375130Y256138D02*
X346710Y284558D01*
X375130Y256138D02*
X375130Y192630D01*
X337590Y155090D01*
D17*
X172720Y495300D03*
D18*
X215900Y495300D01*
D17*
X232410Y478790D03*
D18*
X215900Y495300D01*
D17*
X190500Y427284D03*
D19*
X190500Y393700D01*
D17*
X190500Y393700D03*
X86492Y399918D03*
D18*
X92975Y406400D01*
X114300Y406400D01*
X114300Y410210D01*
D17*
X114300Y410210D03*
X228600Y189230D03*
D18*
X161001Y189230D01*
X152255Y180485D01*
D17*
X152255Y180485D03*
X107950Y439420D03*
D19*
X218440Y439420D01*
D17*
X218440Y439420D03*
X430530Y495300D03*
D19*
X342900Y495300D01*
D17*
X342900Y495300D03*
X124460Y433352D03*
D19*
X225072Y433352D01*
X229870Y438150D01*
D17*
X229870Y438150D03*
X452060Y172660D03*
X417830Y201930D03*
D20*
X422790Y201930D01*
X452060Y172660D01*
D17*
X508000Y340896D03*
X469900Y330200D03*
D19*
X480596Y340896D01*
X508000Y340896D01*
D17*
X439420Y369570D03*
D19*
X439420Y425450D01*
D17*
X266700Y431800D03*
D19*
X433070Y431800D02*
X439420Y425450D01*
X433070Y431800D02*
X266700Y431800D01*
D17*
X445770Y341630D03*
D19*
X445488Y367057D02*
X445488Y368300D01*
X445488Y423693D01*
X401821Y467360D01*
X187960Y467360D01*
X186690Y466090D01*
D17*
X186690Y466090D03*
D19*
X445488Y367057D02*
X445488Y341912D01*
X445770Y341630D01*
D17*
X552450Y92710D03*
D19*
X596900Y137160D01*
X596900Y152400D01*
D17*
X596900Y152400D03*
D19*
X535914Y44732D02*
X331957Y44732D01*
X552450Y61269D02*
X552450Y92710D01*
X552450Y61269D02*
X535914Y44732D01*
X243840Y349559D02*
X241582Y351817D01*
X241582Y368018D02*
X241300Y368300D01*
X241582Y368018D02*
X241582Y351817D01*
D17*
X241300Y368300D03*
D19*
X243840Y132849D02*
X331957Y44732D01*
X243840Y132849D02*
X243840Y349559D01*
D17*
X368300Y252730D03*
D19*
X318770Y252730D01*
X317500Y254000D02*
X317500Y256004D01*
D17*
X317500Y256004D03*
D19*
X317500Y254000D02*
X318770Y252730D01*
X317500Y254000D02*
X279400Y292100D01*
D17*
X279400Y419100D03*
D19*
X279400Y292100D01*
D17*
X63500Y368300D03*
D19*
X127000Y368300D02*
X128270Y369570D01*
D17*
X128270Y369570D03*
D19*
X127000Y368300D02*
X63500Y368300D01*
D17*
X312420Y88900D03*
D19*
X293370Y107950D01*
X293370Y109220D01*
D17*
X293370Y109220D03*
X254000Y368300D03*
D19*
X254000Y147320D01*
X293370Y107950D01*
D17*
X275364Y279400D03*
D19*
X258332Y296432D01*
X260068Y365787D02*
X260068Y370814D01*
X258332Y364051D02*
X258332Y296432D01*
X258332Y364051D02*
X260068Y365787D01*
X241300Y389582D02*
X241300Y431800D01*
X241300Y389582D02*
X260068Y370814D01*
D17*
X241300Y431800D03*
X247650Y354330D03*
D19*
X247650Y133350D01*
X330200Y50800D02*
X533400Y50800D01*
D17*
X533400Y50800D03*
D19*
X330200Y50800D02*
X247650Y133350D01*
M02*
