G04 EAGLE Gerber RS-274X export*
G75*
%MOMM*%
%FSLAX34Y34*%
%LPD*%
%INSolderpaste Top*%
%IPPOS*%
%AMOC8*
5,1,8,0,0,1.08239X$1,22.5*%
G01*
%ADD10R,2.235200X2.489200*%
%ADD11R,0.800000X0.800000*%
%ADD12R,0.820000X1.260000*%
%ADD13C,0.088900*%
%ADD14R,0.990600X1.600200*%
%ADD15C,0.295000*%
%ADD16R,2.489200X2.235200*%
%ADD17R,0.950000X1.000000*%
%ADD18R,1.260000X0.820000*%
%ADD19R,1.600200X0.990600*%
%ADD20R,0.355600X1.473200*%
%ADD21R,1.000000X0.950000*%
%ADD22R,1.450000X1.150000*%


D10*
X87630Y495300D03*
X114300Y482600D03*
D11*
X396240Y152520D03*
X396240Y167520D03*
X331470Y166490D03*
X331470Y181490D03*
X400050Y123070D03*
X400050Y108070D03*
X354450Y177800D03*
X369450Y177800D03*
D12*
X368300Y114300D03*
D13*
X375983Y109134D02*
X381699Y109134D01*
X381699Y106466D01*
X375983Y106466D01*
X375983Y109134D01*
X375983Y107311D02*
X381699Y107311D01*
X381699Y108156D02*
X375983Y108156D01*
X375983Y109001D02*
X381699Y109001D01*
X381699Y115634D02*
X375983Y115634D01*
X381699Y115634D02*
X381699Y112966D01*
X375983Y112966D01*
X375983Y115634D01*
X375983Y113811D02*
X381699Y113811D01*
X381699Y114656D02*
X375983Y114656D01*
X375983Y115501D02*
X381699Y115501D01*
X381699Y122134D02*
X375983Y122134D01*
X381699Y122134D02*
X381699Y119466D01*
X375983Y119466D01*
X375983Y122134D01*
X375983Y120311D02*
X381699Y120311D01*
X381699Y121156D02*
X375983Y121156D01*
X375983Y122001D02*
X381699Y122001D01*
X360617Y122134D02*
X354901Y122134D01*
X360617Y122134D02*
X360617Y119466D01*
X354901Y119466D01*
X354901Y122134D01*
X354901Y120311D02*
X360617Y120311D01*
X360617Y121156D02*
X354901Y121156D01*
X354901Y122001D02*
X360617Y122001D01*
X360617Y115634D02*
X354901Y115634D01*
X360617Y115634D02*
X360617Y112966D01*
X354901Y112966D01*
X354901Y115634D01*
X354901Y113811D02*
X360617Y113811D01*
X360617Y114656D02*
X354901Y114656D01*
X354901Y115501D02*
X360617Y115501D01*
X360617Y109134D02*
X354901Y109134D01*
X360617Y109134D02*
X360617Y106466D01*
X354901Y106466D01*
X354901Y109134D01*
X354901Y107311D02*
X360617Y107311D01*
X360617Y108156D02*
X354901Y108156D01*
X354901Y109001D02*
X360617Y109001D01*
D14*
X368300Y114300D03*
D11*
X159900Y469900D03*
X144900Y469900D03*
X159900Y495300D03*
X144900Y495300D03*
D10*
X215900Y482600D03*
X190500Y482600D03*
D15*
X68985Y453905D02*
X68985Y445855D01*
X68985Y453905D02*
X71935Y453905D01*
X71935Y445855D01*
X68985Y445855D01*
X68985Y448657D02*
X71935Y448657D01*
X71935Y451459D02*
X68985Y451459D01*
X59485Y453905D02*
X59485Y445855D01*
X59485Y453905D02*
X62435Y453905D01*
X62435Y445855D01*
X59485Y445855D01*
X59485Y448657D02*
X62435Y448657D01*
X62435Y451459D02*
X59485Y451459D01*
X49985Y453905D02*
X49985Y445855D01*
X49985Y453905D02*
X52935Y453905D01*
X52935Y445855D01*
X49985Y445855D01*
X49985Y448657D02*
X52935Y448657D01*
X52935Y451459D02*
X49985Y451459D01*
X49985Y427905D02*
X49985Y419855D01*
X49985Y427905D02*
X52935Y427905D01*
X52935Y419855D01*
X49985Y419855D01*
X49985Y422657D02*
X52935Y422657D01*
X52935Y425459D02*
X49985Y425459D01*
X68985Y427905D02*
X68985Y419855D01*
X68985Y427905D02*
X71935Y427905D01*
X71935Y419855D01*
X68985Y419855D01*
X68985Y422657D02*
X71935Y422657D01*
X71935Y425459D02*
X68985Y425459D01*
D10*
X87630Y469900D03*
X73660Y402590D03*
X43180Y471170D03*
D12*
X360680Y148590D03*
D13*
X368363Y143424D02*
X374079Y143424D01*
X374079Y140756D01*
X368363Y140756D01*
X368363Y143424D01*
X368363Y141601D02*
X374079Y141601D01*
X374079Y142446D02*
X368363Y142446D01*
X368363Y143291D02*
X374079Y143291D01*
X374079Y149924D02*
X368363Y149924D01*
X374079Y149924D02*
X374079Y147256D01*
X368363Y147256D01*
X368363Y149924D01*
X368363Y148101D02*
X374079Y148101D01*
X374079Y148946D02*
X368363Y148946D01*
X368363Y149791D02*
X374079Y149791D01*
X374079Y156424D02*
X368363Y156424D01*
X374079Y156424D02*
X374079Y153756D01*
X368363Y153756D01*
X368363Y156424D01*
X368363Y154601D02*
X374079Y154601D01*
X374079Y155446D02*
X368363Y155446D01*
X368363Y156291D02*
X374079Y156291D01*
X352997Y156424D02*
X347281Y156424D01*
X352997Y156424D02*
X352997Y153756D01*
X347281Y153756D01*
X347281Y156424D01*
X347281Y154601D02*
X352997Y154601D01*
X352997Y155446D02*
X347281Y155446D01*
X347281Y156291D02*
X352997Y156291D01*
X352997Y149924D02*
X347281Y149924D01*
X352997Y149924D02*
X352997Y147256D01*
X347281Y147256D01*
X347281Y149924D01*
X347281Y148101D02*
X352997Y148101D01*
X352997Y148946D02*
X347281Y148946D01*
X347281Y149791D02*
X352997Y149791D01*
X352997Y143424D02*
X347281Y143424D01*
X352997Y143424D02*
X352997Y140756D01*
X347281Y140756D01*
X347281Y143424D01*
X347281Y141601D02*
X352997Y141601D01*
X352997Y142446D02*
X347281Y142446D01*
X347281Y143291D02*
X352997Y143291D01*
D14*
X360680Y148590D03*
D16*
X311150Y143510D03*
X309880Y118110D03*
D10*
X355600Y76200D03*
X381000Y76200D03*
D11*
X396360Y325120D03*
X411360Y325120D03*
X339090Y349370D03*
X339090Y364370D03*
X396240Y299600D03*
X396240Y284600D03*
X359530Y347980D03*
X374530Y347980D03*
D12*
X368300Y279400D03*
D13*
X375983Y274234D02*
X381699Y274234D01*
X381699Y271566D01*
X375983Y271566D01*
X375983Y274234D01*
X375983Y272411D02*
X381699Y272411D01*
X381699Y273256D02*
X375983Y273256D01*
X375983Y274101D02*
X381699Y274101D01*
X381699Y280734D02*
X375983Y280734D01*
X381699Y280734D02*
X381699Y278066D01*
X375983Y278066D01*
X375983Y280734D01*
X375983Y278911D02*
X381699Y278911D01*
X381699Y279756D02*
X375983Y279756D01*
X375983Y280601D02*
X381699Y280601D01*
X381699Y287234D02*
X375983Y287234D01*
X381699Y287234D02*
X381699Y284566D01*
X375983Y284566D01*
X375983Y287234D01*
X375983Y285411D02*
X381699Y285411D01*
X381699Y286256D02*
X375983Y286256D01*
X375983Y287101D02*
X381699Y287101D01*
X360617Y287234D02*
X354901Y287234D01*
X360617Y287234D02*
X360617Y284566D01*
X354901Y284566D01*
X354901Y287234D01*
X354901Y285411D02*
X360617Y285411D01*
X360617Y286256D02*
X354901Y286256D01*
X354901Y287101D02*
X360617Y287101D01*
X360617Y280734D02*
X354901Y280734D01*
X360617Y280734D02*
X360617Y278066D01*
X354901Y278066D01*
X354901Y280734D01*
X354901Y278911D02*
X360617Y278911D01*
X360617Y279756D02*
X354901Y279756D01*
X354901Y280601D02*
X360617Y280601D01*
X360617Y274234D02*
X354901Y274234D01*
X360617Y274234D02*
X360617Y271566D01*
X354901Y271566D01*
X354901Y274234D01*
X354901Y272411D02*
X360617Y272411D01*
X360617Y273256D02*
X354901Y273256D01*
X354901Y274101D02*
X360617Y274101D01*
D14*
X368300Y279400D03*
D12*
X365760Y318770D03*
D13*
X373443Y313604D02*
X379159Y313604D01*
X379159Y310936D01*
X373443Y310936D01*
X373443Y313604D01*
X373443Y311781D02*
X379159Y311781D01*
X379159Y312626D02*
X373443Y312626D01*
X373443Y313471D02*
X379159Y313471D01*
X379159Y320104D02*
X373443Y320104D01*
X379159Y320104D02*
X379159Y317436D01*
X373443Y317436D01*
X373443Y320104D01*
X373443Y318281D02*
X379159Y318281D01*
X379159Y319126D02*
X373443Y319126D01*
X373443Y319971D02*
X379159Y319971D01*
X379159Y326604D02*
X373443Y326604D01*
X379159Y326604D02*
X379159Y323936D01*
X373443Y323936D01*
X373443Y326604D01*
X373443Y324781D02*
X379159Y324781D01*
X379159Y325626D02*
X373443Y325626D01*
X373443Y326471D02*
X379159Y326471D01*
X358077Y326604D02*
X352361Y326604D01*
X358077Y326604D02*
X358077Y323936D01*
X352361Y323936D01*
X352361Y326604D01*
X352361Y324781D02*
X358077Y324781D01*
X358077Y325626D02*
X352361Y325626D01*
X352361Y326471D02*
X358077Y326471D01*
X358077Y320104D02*
X352361Y320104D01*
X358077Y320104D02*
X358077Y317436D01*
X352361Y317436D01*
X352361Y320104D01*
X352361Y318281D02*
X358077Y318281D01*
X358077Y319126D02*
X352361Y319126D01*
X352361Y319971D02*
X358077Y319971D01*
X358077Y313604D02*
X352361Y313604D01*
X358077Y313604D02*
X358077Y310936D01*
X352361Y310936D01*
X352361Y313604D01*
X352361Y311781D02*
X358077Y311781D01*
X358077Y312626D02*
X352361Y312626D01*
X352361Y313471D02*
X358077Y313471D01*
D14*
X365760Y318770D03*
D10*
X287020Y275590D03*
X312420Y275590D03*
X355600Y251460D03*
X381000Y251460D03*
D17*
X333120Y313690D03*
X317120Y313690D03*
D11*
X518160Y160140D03*
X518160Y175140D03*
X463550Y161170D03*
X463550Y146170D03*
X538480Y160140D03*
X538480Y175140D03*
X480180Y161290D03*
X495180Y161290D03*
D18*
X558800Y152400D03*
D13*
X563966Y160083D02*
X563966Y165799D01*
X566634Y165799D01*
X566634Y160083D01*
X563966Y160083D01*
X563966Y160928D02*
X566634Y160928D01*
X566634Y161773D02*
X563966Y161773D01*
X563966Y162618D02*
X566634Y162618D01*
X566634Y163463D02*
X563966Y163463D01*
X563966Y164308D02*
X566634Y164308D01*
X566634Y165153D02*
X563966Y165153D01*
X557466Y165799D02*
X557466Y160083D01*
X557466Y165799D02*
X560134Y165799D01*
X560134Y160083D01*
X557466Y160083D01*
X557466Y160928D02*
X560134Y160928D01*
X560134Y161773D02*
X557466Y161773D01*
X557466Y162618D02*
X560134Y162618D01*
X560134Y163463D02*
X557466Y163463D01*
X557466Y164308D02*
X560134Y164308D01*
X560134Y165153D02*
X557466Y165153D01*
X550966Y165799D02*
X550966Y160083D01*
X550966Y165799D02*
X553634Y165799D01*
X553634Y160083D01*
X550966Y160083D01*
X550966Y160928D02*
X553634Y160928D01*
X553634Y161773D02*
X550966Y161773D01*
X550966Y162618D02*
X553634Y162618D01*
X553634Y163463D02*
X550966Y163463D01*
X550966Y164308D02*
X553634Y164308D01*
X553634Y165153D02*
X550966Y165153D01*
X550966Y144717D02*
X550966Y139001D01*
X550966Y144717D02*
X553634Y144717D01*
X553634Y139001D01*
X550966Y139001D01*
X550966Y139846D02*
X553634Y139846D01*
X553634Y140691D02*
X550966Y140691D01*
X550966Y141536D02*
X553634Y141536D01*
X553634Y142381D02*
X550966Y142381D01*
X550966Y143226D02*
X553634Y143226D01*
X553634Y144071D02*
X550966Y144071D01*
X557466Y144717D02*
X557466Y139001D01*
X557466Y144717D02*
X560134Y144717D01*
X560134Y139001D01*
X557466Y139001D01*
X557466Y139846D02*
X560134Y139846D01*
X560134Y140691D02*
X557466Y140691D01*
X557466Y141536D02*
X560134Y141536D01*
X560134Y142381D02*
X557466Y142381D01*
X557466Y143226D02*
X560134Y143226D01*
X560134Y144071D02*
X557466Y144071D01*
X563966Y144717D02*
X563966Y139001D01*
X563966Y144717D02*
X566634Y144717D01*
X566634Y139001D01*
X563966Y139001D01*
X563966Y139846D02*
X566634Y139846D01*
X566634Y140691D02*
X563966Y140691D01*
X563966Y141536D02*
X566634Y141536D01*
X566634Y142381D02*
X563966Y142381D01*
X563966Y143226D02*
X566634Y143226D01*
X566634Y144071D02*
X563966Y144071D01*
D19*
X558800Y152400D03*
D18*
X510540Y127000D03*
D13*
X515706Y134683D02*
X515706Y140399D01*
X518374Y140399D01*
X518374Y134683D01*
X515706Y134683D01*
X515706Y135528D02*
X518374Y135528D01*
X518374Y136373D02*
X515706Y136373D01*
X515706Y137218D02*
X518374Y137218D01*
X518374Y138063D02*
X515706Y138063D01*
X515706Y138908D02*
X518374Y138908D01*
X518374Y139753D02*
X515706Y139753D01*
X509206Y140399D02*
X509206Y134683D01*
X509206Y140399D02*
X511874Y140399D01*
X511874Y134683D01*
X509206Y134683D01*
X509206Y135528D02*
X511874Y135528D01*
X511874Y136373D02*
X509206Y136373D01*
X509206Y137218D02*
X511874Y137218D01*
X511874Y138063D02*
X509206Y138063D01*
X509206Y138908D02*
X511874Y138908D01*
X511874Y139753D02*
X509206Y139753D01*
X502706Y140399D02*
X502706Y134683D01*
X502706Y140399D02*
X505374Y140399D01*
X505374Y134683D01*
X502706Y134683D01*
X502706Y135528D02*
X505374Y135528D01*
X505374Y136373D02*
X502706Y136373D01*
X502706Y137218D02*
X505374Y137218D01*
X505374Y138063D02*
X502706Y138063D01*
X502706Y138908D02*
X505374Y138908D01*
X505374Y139753D02*
X502706Y139753D01*
X502706Y119317D02*
X502706Y113601D01*
X502706Y119317D02*
X505374Y119317D01*
X505374Y113601D01*
X502706Y113601D01*
X502706Y114446D02*
X505374Y114446D01*
X505374Y115291D02*
X502706Y115291D01*
X502706Y116136D02*
X505374Y116136D01*
X505374Y116981D02*
X502706Y116981D01*
X502706Y117826D02*
X505374Y117826D01*
X505374Y118671D02*
X502706Y118671D01*
X509206Y119317D02*
X509206Y113601D01*
X509206Y119317D02*
X511874Y119317D01*
X511874Y113601D01*
X509206Y113601D01*
X509206Y114446D02*
X511874Y114446D01*
X511874Y115291D02*
X509206Y115291D01*
X509206Y116136D02*
X511874Y116136D01*
X511874Y116981D02*
X509206Y116981D01*
X509206Y117826D02*
X511874Y117826D01*
X511874Y118671D02*
X509206Y118671D01*
X515706Y119317D02*
X515706Y113601D01*
X515706Y119317D02*
X518374Y119317D01*
X518374Y113601D01*
X515706Y113601D01*
X515706Y114446D02*
X518374Y114446D01*
X518374Y115291D02*
X515706Y115291D01*
X515706Y116136D02*
X518374Y116136D01*
X518374Y116981D02*
X515706Y116981D01*
X515706Y117826D02*
X518374Y117826D01*
X518374Y118671D02*
X515706Y118671D01*
D19*
X510540Y127000D03*
D16*
X537210Y71120D03*
X537210Y96520D03*
D10*
X585470Y139700D03*
X585470Y165100D03*
D11*
X590670Y370840D03*
X605670Y370840D03*
X565270Y405130D03*
X580270Y405130D03*
X589280Y336430D03*
X589280Y321430D03*
X565150Y387230D03*
X565150Y372230D03*
D18*
X560070Y326390D03*
D13*
X554904Y318707D02*
X554904Y312991D01*
X552236Y312991D01*
X552236Y318707D01*
X554904Y318707D01*
X554904Y313836D02*
X552236Y313836D01*
X552236Y314681D02*
X554904Y314681D01*
X554904Y315526D02*
X552236Y315526D01*
X552236Y316371D02*
X554904Y316371D01*
X554904Y317216D02*
X552236Y317216D01*
X552236Y318061D02*
X554904Y318061D01*
X561404Y318707D02*
X561404Y312991D01*
X558736Y312991D01*
X558736Y318707D01*
X561404Y318707D01*
X561404Y313836D02*
X558736Y313836D01*
X558736Y314681D02*
X561404Y314681D01*
X561404Y315526D02*
X558736Y315526D01*
X558736Y316371D02*
X561404Y316371D01*
X561404Y317216D02*
X558736Y317216D01*
X558736Y318061D02*
X561404Y318061D01*
X567904Y318707D02*
X567904Y312991D01*
X565236Y312991D01*
X565236Y318707D01*
X567904Y318707D01*
X567904Y313836D02*
X565236Y313836D01*
X565236Y314681D02*
X567904Y314681D01*
X567904Y315526D02*
X565236Y315526D01*
X565236Y316371D02*
X567904Y316371D01*
X567904Y317216D02*
X565236Y317216D01*
X565236Y318061D02*
X567904Y318061D01*
X567904Y334073D02*
X567904Y339789D01*
X567904Y334073D02*
X565236Y334073D01*
X565236Y339789D01*
X567904Y339789D01*
X567904Y334918D02*
X565236Y334918D01*
X565236Y335763D02*
X567904Y335763D01*
X567904Y336608D02*
X565236Y336608D01*
X565236Y337453D02*
X567904Y337453D01*
X567904Y338298D02*
X565236Y338298D01*
X565236Y339143D02*
X567904Y339143D01*
X561404Y339789D02*
X561404Y334073D01*
X558736Y334073D01*
X558736Y339789D01*
X561404Y339789D01*
X561404Y334918D02*
X558736Y334918D01*
X558736Y335763D02*
X561404Y335763D01*
X561404Y336608D02*
X558736Y336608D01*
X558736Y337453D02*
X561404Y337453D01*
X561404Y338298D02*
X558736Y338298D01*
X558736Y339143D02*
X561404Y339143D01*
X554904Y339789D02*
X554904Y334073D01*
X552236Y334073D01*
X552236Y339789D01*
X554904Y339789D01*
X554904Y334918D02*
X552236Y334918D01*
X552236Y335763D02*
X554904Y335763D01*
X554904Y336608D02*
X552236Y336608D01*
X552236Y337453D02*
X554904Y337453D01*
X554904Y338298D02*
X552236Y338298D01*
X552236Y339143D02*
X554904Y339143D01*
D19*
X560070Y326390D03*
D12*
X532130Y379730D03*
D13*
X539813Y374564D02*
X545529Y374564D01*
X545529Y371896D01*
X539813Y371896D01*
X539813Y374564D01*
X539813Y372741D02*
X545529Y372741D01*
X545529Y373586D02*
X539813Y373586D01*
X539813Y374431D02*
X545529Y374431D01*
X545529Y381064D02*
X539813Y381064D01*
X545529Y381064D02*
X545529Y378396D01*
X539813Y378396D01*
X539813Y381064D01*
X539813Y379241D02*
X545529Y379241D01*
X545529Y380086D02*
X539813Y380086D01*
X539813Y380931D02*
X545529Y380931D01*
X545529Y387564D02*
X539813Y387564D01*
X545529Y387564D02*
X545529Y384896D01*
X539813Y384896D01*
X539813Y387564D01*
X539813Y385741D02*
X545529Y385741D01*
X545529Y386586D02*
X539813Y386586D01*
X539813Y387431D02*
X545529Y387431D01*
X524447Y387564D02*
X518731Y387564D01*
X524447Y387564D02*
X524447Y384896D01*
X518731Y384896D01*
X518731Y387564D01*
X518731Y385741D02*
X524447Y385741D01*
X524447Y386586D02*
X518731Y386586D01*
X518731Y387431D02*
X524447Y387431D01*
X524447Y381064D02*
X518731Y381064D01*
X524447Y381064D02*
X524447Y378396D01*
X518731Y378396D01*
X518731Y381064D01*
X518731Y379241D02*
X524447Y379241D01*
X524447Y380086D02*
X518731Y380086D01*
X518731Y380931D02*
X524447Y380931D01*
X524447Y374564D02*
X518731Y374564D01*
X524447Y374564D02*
X524447Y371896D01*
X518731Y371896D01*
X518731Y374564D01*
X518731Y372741D02*
X524447Y372741D01*
X524447Y373586D02*
X518731Y373586D01*
X518731Y374431D02*
X524447Y374431D01*
D14*
X532130Y379730D03*
D10*
X463550Y342900D03*
X488950Y342900D03*
D16*
X520700Y342900D03*
X520700Y317500D03*
D20*
X222250Y395986D03*
X228600Y395986D03*
X235204Y395986D03*
X241808Y395986D03*
X248158Y395986D03*
X254762Y395986D03*
X261112Y395986D03*
X267716Y395986D03*
X274320Y395986D03*
X280670Y395986D03*
X280670Y452374D03*
X274320Y452374D03*
X267716Y452374D03*
X261112Y452374D03*
X254762Y452374D03*
X248158Y452374D03*
X241808Y452374D03*
X235204Y452374D03*
X228600Y452374D03*
X222250Y452374D03*
X491490Y225806D03*
X497840Y225806D03*
X504444Y225806D03*
X511048Y225806D03*
X517398Y225806D03*
X524002Y225806D03*
X530352Y225806D03*
X536956Y225806D03*
X543560Y225806D03*
X549910Y225806D03*
X549910Y282194D03*
X543560Y282194D03*
X536956Y282194D03*
X530352Y282194D03*
X524002Y282194D03*
X517398Y282194D03*
X511048Y282194D03*
X504444Y282194D03*
X497840Y282194D03*
X491490Y282194D03*
X107950Y395986D03*
X114300Y395986D03*
X120904Y395986D03*
X127508Y395986D03*
X133858Y395986D03*
X140462Y395986D03*
X146812Y395986D03*
X153416Y395986D03*
X160020Y395986D03*
X166370Y395986D03*
X166370Y452374D03*
X160020Y452374D03*
X153416Y452374D03*
X146812Y452374D03*
X140462Y452374D03*
X133858Y452374D03*
X127508Y452374D03*
X120904Y452374D03*
X114300Y452374D03*
X107950Y452374D03*
X167640Y215646D03*
X173990Y215646D03*
X180594Y215646D03*
X187198Y215646D03*
X193548Y215646D03*
X200152Y215646D03*
X206502Y215646D03*
X213106Y215646D03*
X219710Y215646D03*
X226060Y215646D03*
X226060Y272034D03*
X219710Y272034D03*
X213106Y272034D03*
X206502Y272034D03*
X200152Y272034D03*
X193548Y272034D03*
X187198Y272034D03*
X180594Y272034D03*
X173990Y272034D03*
X167640Y272034D03*
D17*
X342010Y100330D03*
X326010Y100330D03*
D21*
X328930Y146430D03*
X328930Y130430D03*
X334010Y283590D03*
X334010Y267590D03*
D17*
X171830Y198120D03*
X155830Y198120D03*
D21*
X471170Y241680D03*
X471170Y225680D03*
X114300Y377570D03*
X114300Y361570D03*
X205740Y408560D03*
X205740Y424560D03*
D17*
X504570Y372110D03*
X488570Y372110D03*
X546990Y354330D03*
X562990Y354330D03*
D21*
X554990Y111380D03*
X554990Y127380D03*
X481330Y135000D03*
X481330Y119000D03*
D11*
X284600Y495300D03*
X299600Y495300D03*
X360680Y437000D03*
X360680Y452000D03*
X360680Y490100D03*
X360680Y475100D03*
X330200Y490100D03*
X330200Y475100D03*
X402470Y495300D03*
X387470Y495300D03*
X330200Y437000D03*
X330200Y452000D03*
D21*
X63500Y466980D03*
X63500Y482980D03*
D22*
X50800Y405240D03*
X50800Y387240D03*
M02*
