G04 EAGLE Gerber RS-274X export*
G75*
%MOMM*%
%FSLAX34Y34*%
%LPD*%
%INSoldermask Bottom*%
%IPPOS*%
%AMOC8*
5,1,8,0,0,1.08239X$1,22.5*%
G01*
%ADD10R,1.981200X1.981200*%
%ADD11C,1.981200*%
%ADD12C,6.403200*%
%ADD13C,1.727200*%
%ADD14C,2.743200*%
%ADD15C,3.378200*%
%ADD16C,0.859600*%
%ADD17C,0.959600*%


D10*
X121800Y525000D03*
D11*
X121800Y550400D03*
X147200Y525000D03*
X147200Y550400D03*
X172600Y525000D03*
X172600Y550400D03*
X198000Y525000D03*
X198000Y550400D03*
X223400Y525000D03*
X223400Y550400D03*
X248800Y525000D03*
X248800Y550400D03*
X274200Y525000D03*
X274200Y550400D03*
X299600Y525000D03*
X299600Y550400D03*
X325000Y525000D03*
X325000Y550400D03*
X350400Y525000D03*
X350400Y550400D03*
X375800Y525000D03*
X375800Y550400D03*
X401200Y525000D03*
X401200Y550400D03*
X426600Y525000D03*
X426600Y550400D03*
X452000Y525000D03*
X452000Y550400D03*
X477400Y525000D03*
X477400Y550400D03*
X502800Y525000D03*
X502800Y550400D03*
X528200Y525000D03*
X528200Y550400D03*
X553600Y525000D03*
X553600Y550400D03*
X579000Y525000D03*
X579000Y550400D03*
X604400Y525000D03*
X604400Y550400D03*
D12*
X73100Y47700D03*
X653100Y47700D03*
X653100Y537700D03*
X73100Y537700D03*
D13*
X622300Y254000D03*
D14*
X622300Y211455D03*
X622300Y296545D03*
D15*
X653796Y211455D03*
X653796Y296545D03*
D13*
X88900Y241300D03*
D14*
X88900Y283845D03*
X88900Y198755D03*
D15*
X57404Y283845D03*
X57404Y198755D03*
D16*
X267970Y210820D03*
X267970Y195580D03*
X281940Y195580D03*
X294640Y195580D03*
X307340Y195580D03*
X320040Y195580D03*
X332740Y195580D03*
X345440Y195580D03*
X358140Y195580D03*
X236220Y195580D03*
X210820Y195580D03*
X236220Y210820D03*
X186690Y198120D03*
X198120Y182880D03*
X210820Y170180D03*
X223520Y181610D03*
X222250Y162560D03*
X232410Y173990D03*
X233680Y158750D03*
X261620Y158750D03*
X261620Y173990D03*
X274320Y158750D03*
X274320Y173990D03*
X287020Y173990D03*
X299720Y173990D03*
X312420Y173990D03*
X287020Y158750D03*
X299720Y158750D03*
X312420Y158750D03*
X364490Y165100D03*
X342900Y176530D03*
X330200Y115570D03*
X345440Y132080D03*
X391160Y137160D03*
X369570Y93980D03*
X394970Y93980D03*
X327660Y81280D03*
X279400Y113030D03*
X261620Y129540D03*
X280670Y210820D03*
X293370Y210820D03*
X306070Y210820D03*
X318770Y210820D03*
X331470Y210820D03*
X344170Y210820D03*
X356870Y210820D03*
X367030Y210820D03*
X367030Y195580D03*
X384810Y195580D03*
X384810Y210820D03*
X397510Y195580D03*
X410210Y195580D03*
X397510Y210820D03*
X410210Y210820D03*
X422910Y210820D03*
X427990Y186690D03*
X438150Y196850D03*
X411480Y171450D03*
X396240Y180340D03*
X417830Y146050D03*
X427990Y156210D03*
X436880Y165100D03*
X422910Y176530D03*
X455930Y185420D03*
X455930Y201930D03*
X471170Y201930D03*
X483870Y204470D03*
X494030Y212090D03*
X469900Y185420D03*
X485140Y185420D03*
X496570Y191770D03*
X505460Y200660D03*
X514350Y209550D03*
X505460Y172720D03*
X477520Y147320D03*
X490220Y147320D03*
X466090Y175260D03*
X519430Y187960D03*
X530860Y187960D03*
X547370Y187960D03*
X547370Y198120D03*
X530860Y198120D03*
X529590Y208280D03*
X547370Y209550D03*
X537210Y147320D03*
X537210Y137160D03*
X539750Y125730D03*
X505460Y101600D03*
X518160Y95250D03*
X566420Y133350D03*
X579120Y152400D03*
X608330Y245110D03*
X604520Y261620D03*
X591820Y261620D03*
X580390Y261620D03*
X568960Y256540D03*
X560070Y247650D03*
X551180Y240030D03*
X560070Y223520D03*
X568960Y232410D03*
X576580Y240030D03*
X586740Y245110D03*
X598170Y245110D03*
X621030Y240030D03*
X632460Y242570D03*
X638810Y252730D03*
X635000Y264160D03*
X624840Y269240D03*
X613410Y267970D03*
X548640Y295910D03*
X528320Y298450D03*
X537210Y309880D03*
X561340Y298450D03*
X576580Y298450D03*
X589280Y307340D03*
X577850Y339090D03*
X598170Y349250D03*
X585470Y391160D03*
X554990Y396240D03*
X553720Y372110D03*
X541020Y330200D03*
X519430Y330200D03*
X533400Y353060D03*
X463550Y365760D03*
X543560Y397510D03*
X533400Y397510D03*
X520700Y397510D03*
X499110Y397510D03*
X510540Y397510D03*
X487680Y397510D03*
X473710Y397510D03*
X453390Y397510D03*
X551180Y414020D03*
X534670Y414020D03*
X521970Y414020D03*
X510540Y414020D03*
X499110Y414020D03*
X487680Y414020D03*
X473710Y414020D03*
X463550Y397510D03*
X463550Y414020D03*
X453390Y414020D03*
X431800Y397510D03*
X431800Y414020D03*
X419100Y414020D03*
X419100Y397510D03*
X406400Y414020D03*
X393700Y414020D03*
X381000Y414020D03*
X368300Y414020D03*
X355600Y414020D03*
X342900Y414020D03*
X406400Y397510D03*
X393700Y397510D03*
X381000Y397510D03*
X368300Y397510D03*
X355600Y397510D03*
X345440Y397510D03*
X337820Y388620D03*
X331470Y407670D03*
X321310Y397510D03*
X312420Y387350D03*
X299720Y378460D03*
X293370Y368300D03*
X285750Y360680D03*
X271780Y346710D03*
X331470Y382270D03*
X325120Y375920D03*
X318770Y369570D03*
X312420Y363220D03*
X306070Y356870D03*
X299720Y350520D03*
X293370Y344170D03*
X287020Y337820D03*
X273050Y326390D03*
X265430Y339090D03*
X266700Y320040D03*
X237490Y298450D03*
X236220Y321310D03*
X228600Y313690D03*
X222250Y307340D03*
X215900Y300990D03*
X209550Y294640D03*
X203200Y288290D03*
X231140Y292100D03*
X224790Y285750D03*
X336550Y335280D03*
X347980Y337820D03*
X360680Y337820D03*
X373380Y337820D03*
X403860Y312420D03*
X387350Y311150D03*
X381000Y298450D03*
X370840Y295910D03*
X354330Y299720D03*
X345440Y313690D03*
X327660Y326390D03*
X369570Y379730D03*
X322580Y358140D03*
X401320Y379730D03*
X321310Y340360D03*
X312420Y332740D03*
X303530Y322580D03*
X295910Y314960D03*
X285750Y307340D03*
X266700Y309880D03*
X273050Y294640D03*
X260350Y280670D03*
X237490Y259080D03*
X229870Y250190D03*
X217170Y248920D03*
X204470Y248920D03*
X191770Y248920D03*
X179070Y248920D03*
X166370Y248920D03*
X153670Y248920D03*
X140970Y248920D03*
X128270Y248920D03*
X115570Y248920D03*
X104140Y248920D03*
X95250Y256540D03*
X83820Y256540D03*
X73660Y247650D03*
X73660Y234950D03*
X82550Y227330D03*
X95250Y227330D03*
X105410Y233680D03*
X116840Y233680D03*
X129540Y233680D03*
X142240Y233680D03*
X154940Y233680D03*
X167640Y233680D03*
X180340Y233680D03*
X193040Y233680D03*
X205740Y233680D03*
X222250Y238760D03*
X231140Y229870D03*
X515620Y299720D03*
X509270Y306070D03*
X496570Y309880D03*
X483870Y309880D03*
X471170Y309880D03*
X458470Y309880D03*
X445770Y309880D03*
X433070Y309880D03*
X420370Y309880D03*
X483870Y290830D03*
X471170Y290830D03*
X458470Y290830D03*
X445770Y290830D03*
X433070Y290830D03*
X420370Y290830D03*
X410210Y285750D03*
X398780Y271780D03*
X415290Y132080D03*
X415290Y119380D03*
X415290Y106680D03*
X408940Y96520D03*
X127000Y138430D03*
X184150Y138430D03*
X127000Y30480D03*
X184150Y30480D03*
X241300Y30480D03*
X298450Y30480D03*
X361950Y30480D03*
X425450Y26670D03*
X490220Y27940D03*
X538480Y20320D03*
X590550Y30480D03*
X596900Y74930D03*
X641350Y119380D03*
X476250Y443230D03*
X527050Y443230D03*
X571500Y443230D03*
X603250Y487680D03*
X641350Y462280D03*
X660400Y430530D03*
X203200Y339090D03*
X165100Y339090D03*
X31750Y370840D03*
X44450Y326390D03*
X95250Y313690D03*
X156210Y426720D03*
X95250Y441960D03*
X201930Y452120D03*
X393700Y443230D03*
X393700Y474980D03*
X311150Y474980D03*
X298450Y449580D03*
X247650Y500380D03*
X260350Y411480D03*
X254000Y430530D03*
X203200Y379730D03*
X500380Y252730D03*
X481330Y259080D03*
X474980Y271780D03*
X436880Y259080D03*
X417830Y240030D03*
X341630Y227330D03*
X278130Y227330D03*
X278130Y252730D03*
X241300Y81280D03*
X184150Y81280D03*
X406400Y347980D03*
X111760Y430530D03*
X151130Y297180D03*
X105410Y499110D03*
X54610Y494030D03*
X67310Y494030D03*
D17*
X337590Y155090D03*
X566420Y123190D03*
X491490Y107950D03*
X345764Y111436D03*
X345440Y59690D03*
X346710Y284558D03*
X330200Y302260D03*
X496570Y361950D03*
X574040Y353060D03*
X172720Y495300D03*
X232410Y478790D03*
X190500Y427284D03*
X190500Y393700D03*
X86492Y399918D03*
X114300Y410210D03*
X228600Y189230D03*
X152255Y180485D03*
X107950Y439420D03*
X218440Y439420D03*
X430530Y495300D03*
X342900Y495300D03*
X124460Y433352D03*
X229870Y438150D03*
X452060Y172660D03*
X417830Y201930D03*
X508000Y340896D03*
X469900Y330200D03*
X439420Y369570D03*
X266700Y431800D03*
X445770Y341630D03*
X186690Y466090D03*
X552450Y92710D03*
X596900Y152400D03*
X241300Y368300D03*
X368300Y252730D03*
X317500Y256004D03*
X279400Y419100D03*
X63500Y368300D03*
X128270Y369570D03*
X312420Y88900D03*
X293370Y109220D03*
X254000Y368300D03*
X275364Y279400D03*
X241300Y431800D03*
X247650Y354330D03*
X533400Y50800D03*
M02*
